<svg width="18" height="18" viewBox="0 0 18 18" fill="none" xmlns="http://www.w3.org/2000/svg">
<g clip-path="url(#clip0_1052_541)">
<path d="M9 0C4.02961 0 0 4.02961 0 9C0 11.4855 1.00758 13.7355 2.63602 15.364L0.921797 17.0782C0.581484 17.4185 0.822656 18 1.30359 18H9C13.9704 18 18 13.9704 18 9C18 4.02961 13.9704 0 9 0Z" fill="#FF4500"/>
<path d="M14.1019 10.7958C15.2626 10.7958 16.2035 9.85487 16.2035 8.69417C16.2035 7.53347 15.2626 6.59253 14.1019 6.59253C12.9412 6.59253 12.0002 7.53347 12.0002 8.69417C12.0002 9.85487 12.9412 10.7958 14.1019 10.7958Z" fill="url(#paint0_radial_1052_541)"/>
<path d="M3.89812 10.7958C5.05882 10.7958 5.99976 9.85487 5.99976 8.69417C5.99976 7.53347 5.05882 6.59253 3.89812 6.59253C2.73741 6.59253 1.79648 7.53347 1.79648 8.69417C1.79648 9.85487 2.73741 10.7958 3.89812 10.7958Z" fill="url(#paint1_radial_1052_541)"/>
<path d="M9.00492 14.9998C12.3185 14.9998 15.0047 12.985 15.0047 10.4998C15.0047 8.01447 12.3185 5.99976 9.00492 5.99976C5.69134 5.99976 3.00516 8.01447 3.00516 10.4998C3.00516 12.985 5.69134 14.9998 9.00492 14.9998Z" fill="url(#paint2_radial_1052_541)"/>
<path d="M7.23094 10.0624C7.19579 10.8246 6.68954 11.1016 6.10102 11.1016C5.5125 11.1016 5.0625 10.7113 5.09766 9.94916C5.13282 9.18697 5.63907 8.68213 6.22758 8.68213C6.8161 8.68213 7.2661 9.30018 7.23094 10.0624Z" fill="#842123"/>
<path d="M12.9122 9.94843C12.9473 10.7106 12.498 11.1009 11.9088 11.1009C11.3196 11.1009 10.8134 10.8245 10.7789 10.0616C10.7438 9.29944 11.193 8.6814 11.7823 8.6814C12.3715 8.6814 12.8777 9.18554 12.9122 9.94843Z" fill="#842123"/>
<path d="M10.7789 10.1286C10.812 10.8422 11.2852 11.101 11.8364 11.101C12.3877 11.101 12.8081 10.7136 12.7751 9.99988C12.742 9.28621 12.2688 8.81934 11.7176 8.81934C11.1663 8.81934 10.7459 9.41488 10.7789 10.1286Z" fill="url(#paint3_radial_1052_541)"/>
<path d="M7.23164 10.1286C7.19859 10.8422 6.72539 11.101 6.17414 11.101C5.62289 11.101 5.20242 10.7136 5.23546 9.99988C5.26851 9.28621 5.74171 8.81934 6.29296 8.81934C6.84421 8.81934 7.26468 9.41488 7.23164 10.1286Z" fill="url(#paint4_radial_1052_541)"/>
<path d="M9.00493 11.6101C8.26103 11.6101 7.54806 11.646 6.88853 11.7114C6.77603 11.7226 6.70431 11.8372 6.7479 11.9399C7.11704 12.8054 7.98821 13.4136 9.00493 13.4136C10.0217 13.4136 10.8921 12.8054 11.262 11.9399C11.3056 11.8372 11.2345 11.7226 11.1213 11.7114C10.4618 11.646 9.74884 11.6101 9.00493 11.6101Z" fill="#BBCFDA"/>
<path d="M9.00494 11.7751C8.26314 11.7751 7.55228 11.8117 6.89486 11.8785C6.78236 11.8898 6.71134 12.0065 6.75493 12.1105C7.12337 12.9901 7.99173 13.6075 9.00423 13.6075C10.0167 13.6075 10.8858 12.9894 11.2542 12.1105C11.2978 12.0065 11.2268 11.8898 11.1143 11.8785C10.4569 11.8117 9.74603 11.7751 9.00423 11.7751H9.00494Z" fill="white"/>
<path d="M9.00492 11.6895C8.27508 11.6895 7.57547 11.7253 6.92789 11.7907C6.8175 11.802 6.74719 11.9166 6.79008 12.0192C7.15219 12.8848 8.00719 13.493 9.00492 13.493C10.0027 13.493 10.857 12.8848 11.2198 12.0192C11.2627 11.9166 11.1923 11.802 11.082 11.7907C10.4351 11.7253 9.73547 11.6895 9.00492 11.6895Z" fill="url(#paint5_radial_1052_541)"/>
<path d="M12.2913 5.38811C13.1138 5.38811 13.7806 4.72136 13.7806 3.89889C13.7806 3.07641 13.1138 2.40967 12.2913 2.40967C11.4689 2.40967 10.8021 3.07641 10.8021 3.89889C10.8021 4.72136 11.4689 5.38811 12.2913 5.38811Z" fill="url(#paint6_radial_1052_541)"/>
<path d="M8.98384 6.18962C8.80524 6.18962 8.6611 6.11509 8.6611 5.99978C8.6611 4.66524 9.74673 3.58032 11.0806 3.58032C11.2591 3.58032 11.4033 3.72517 11.4033 3.90306C11.4033 4.08095 11.2584 4.22579 11.0806 4.22579C10.1025 4.22579 9.30657 5.02173 9.30657 5.99978C9.30657 6.11509 9.16173 6.18962 8.98384 6.18962Z" fill="url(#paint7_radial_1052_541)"/>
<path d="M6.83931 10.4814C6.83931 10.7577 6.54541 10.8814 6.1833 10.8814C5.82119 10.8814 5.52728 10.7577 5.52728 10.4814C5.52728 10.205 5.82119 9.98145 6.1833 9.98145C6.54541 9.98145 6.83931 10.205 6.83931 10.4814Z" fill="#FF6101"/>
<path d="M12.4833 10.4814C12.4833 10.7577 12.1894 10.8814 11.8273 10.8814C11.4652 10.8814 11.1713 10.7577 11.1713 10.4814C11.1713 10.205 11.4652 9.98145 11.8273 9.98145C12.1894 9.98145 12.4833 10.205 12.4833 10.4814Z" fill="#FF6101"/>
<path d="M6.63609 9.73196C6.76501 9.73196 6.86952 9.618 6.86952 9.47743C6.86952 9.33686 6.76501 9.2229 6.63609 9.2229C6.50716 9.2229 6.40265 9.33686 6.40265 9.47743C6.40265 9.618 6.50716 9.73196 6.63609 9.73196Z" fill="#FFC49C"/>
<path d="M12.1845 9.73196C12.3134 9.73196 12.4179 9.618 12.4179 9.47743C12.4179 9.33686 12.3134 9.2229 12.1845 9.2229C12.0555 9.2229 11.951 9.33686 11.951 9.47743C11.951 9.618 12.0555 9.73196 12.1845 9.73196Z" fill="#FFC49C"/>
</g>
<defs>
<radialGradient id="paint0_radial_1052_541" cx="0" cy="0" r="1" gradientUnits="userSpaceOnUse" gradientTransform="translate(14.1337 7.56267) scale(4.21182 3.67414)">
<stop stop-color="#FEFFFF"/>
<stop offset="0.4" stop-color="#FEFFFF"/>
<stop offset="0.51" stop-color="#F9FCFC"/>
<stop offset="0.62" stop-color="#EDF3F5"/>
<stop offset="0.7" stop-color="#DEE9EC"/>
<stop offset="0.72" stop-color="#D8E4E8"/>
<stop offset="0.76" stop-color="#CCD8DF"/>
<stop offset="0.8" stop-color="#C8D5DD"/>
<stop offset="0.83" stop-color="#CCD6DE"/>
<stop offset="0.85" stop-color="#D8DBE2"/>
<stop offset="0.88" stop-color="#EDE3E9"/>
<stop offset="0.9" stop-color="#FFEBEF"/>
</radialGradient>
<radialGradient id="paint1_radial_1052_541" cx="0" cy="0" r="1" gradientUnits="userSpaceOnUse" gradientTransform="translate(3.92989 7.56267) scale(4.21182 3.67414)">
<stop stop-color="#FEFFFF"/>
<stop offset="0.4" stop-color="#FEFFFF"/>
<stop offset="0.51" stop-color="#F9FCFC"/>
<stop offset="0.62" stop-color="#EDF3F5"/>
<stop offset="0.7" stop-color="#DEE9EC"/>
<stop offset="0.72" stop-color="#D8E4E8"/>
<stop offset="0.76" stop-color="#CCD8DF"/>
<stop offset="0.8" stop-color="#C8D5DD"/>
<stop offset="0.83" stop-color="#CCD6DE"/>
<stop offset="0.85" stop-color="#D8DBE2"/>
<stop offset="0.88" stop-color="#EDE3E9"/>
<stop offset="0.9" stop-color="#FFEBEF"/>
</radialGradient>
<radialGradient id="paint2_radial_1052_541" cx="0" cy="0" r="1" gradientUnits="userSpaceOnUse" gradientTransform="translate(9.16505 6.9733) scale(12.7045 8.92021)">
<stop stop-color="#FEFFFF"/>
<stop offset="0.4" stop-color="#FEFFFF"/>
<stop offset="0.51" stop-color="#F9FCFC"/>
<stop offset="0.62" stop-color="#EDF3F5"/>
<stop offset="0.7" stop-color="#DEE9EC"/>
<stop offset="0.72" stop-color="#D8E4E8"/>
<stop offset="0.76" stop-color="#CCD8DF"/>
<stop offset="0.8" stop-color="#C8D5DD"/>
<stop offset="0.83" stop-color="#CCD6DE"/>
<stop offset="0.85" stop-color="#D8DBE2"/>
<stop offset="0.88" stop-color="#EDE3E9"/>
<stop offset="0.9" stop-color="#FFEBEF"/>
</radialGradient>
<radialGradient id="paint3_radial_1052_541" cx="0" cy="0" r="1" gradientUnits="userSpaceOnUse" gradientTransform="translate(11.6213 10.6152) rotate(180) scale(1.06147 1.55832)">
<stop stop-color="#FF6600"/>
<stop offset="0.5" stop-color="#FF4500"/>
<stop offset="0.7" stop-color="#FC4301"/>
<stop offset="0.82" stop-color="#F43F07"/>
<stop offset="0.92" stop-color="#E53812"/>
<stop offset="1" stop-color="#D4301F"/>
</radialGradient>
<radialGradient id="paint4_radial_1052_541" cx="0" cy="0" r="1" gradientUnits="userSpaceOnUse" gradientTransform="translate(6.34152 10.6152) scale(1.06147 1.55832)">
<stop stop-color="#FF6600"/>
<stop offset="0.5" stop-color="#FF4500"/>
<stop offset="0.7" stop-color="#FC4301"/>
<stop offset="0.82" stop-color="#F43F07"/>
<stop offset="0.92" stop-color="#E53812"/>
<stop offset="1" stop-color="#D4301F"/>
</radialGradient>
<radialGradient id="paint5_radial_1052_541" cx="0" cy="0" r="1" gradientUnits="userSpaceOnUse" gradientTransform="translate(9.02592 13.7044) scale(3.74289 2.46871)">
<stop stop-color="#172E35"/>
<stop offset="0.29" stop-color="#0E1C21"/>
<stop offset="0.73" stop-color="#030708"/>
<stop offset="1"/>
</radialGradient>
<radialGradient id="paint6_radial_1052_541" cx="0" cy="0" r="1" gradientUnits="userSpaceOnUse" gradientTransform="translate(12.3267 2.39814) scale(3.28552)">
<stop stop-color="#FEFFFF"/>
<stop offset="0.4" stop-color="#FEFFFF"/>
<stop offset="0.51" stop-color="#F9FCFC"/>
<stop offset="0.62" stop-color="#EDF3F5"/>
<stop offset="0.7" stop-color="#DEE9EC"/>
<stop offset="0.72" stop-color="#D8E4E8"/>
<stop offset="0.76" stop-color="#CCD8DF"/>
<stop offset="0.8" stop-color="#C8D5DD"/>
<stop offset="0.83" stop-color="#CCD6DE"/>
<stop offset="0.85" stop-color="#D8DBE2"/>
<stop offset="0.88" stop-color="#EDE3E9"/>
<stop offset="0.9" stop-color="#FFEBEF"/>
</radialGradient>
<radialGradient id="paint7_radial_1052_541" cx="0" cy="0" r="1" gradientUnits="userSpaceOnUse" gradientTransform="translate(10.9575 5.9798) scale(2.69299)">
<stop offset="0.48" stop-color="#7A9299"/>
<stop offset="0.67" stop-color="#172E35"/>
<stop offset="0.75"/>
<stop offset="0.82" stop-color="#172E35"/>
</radialGradient>
<clipPath id="clip0_1052_541">
<rect width="18" height="18" fill="white"/>
</clipPath>
</defs>
</svg>
