<svg width="12" height="12" viewBox="0 0 12 12" fill="none" xmlns="http://www.w3.org/2000/svg">
<path fill-rule="evenodd" clip-rule="evenodd" d="M11.9816 6C11.9816 9.31371 9.44126 12 6.30755 12C3.17385 12 0.633484 9.31371 0.633484 6C0.633484 2.68629 3.17385 0 6.30755 0C9.44126 0 11.9816 2.68629 11.9816 6ZM6.51089 4.42946C5.959 4.6722 4.856 5.1746 3.2019 5.93666C2.93329 6.04961 2.79259 6.16011 2.77978 6.26815C2.75813 6.45075 2.97437 6.52265 3.26884 6.62056C3.30889 6.63388 3.3504 6.64768 3.39294 6.6623C3.68265 6.76189 4.07236 6.87839 4.27495 6.88302C4.45873 6.88721 4.66384 6.8071 4.89029 6.64267C6.43577 5.5395 7.23355 4.9819 7.28364 4.96988C7.31898 4.9614 7.36794 4.95074 7.40112 4.98192C7.4343 5.01311 7.43104 5.07216 7.42752 5.088C7.4061 5.18457 6.55727 6.01905 6.118 6.45089C5.98106 6.58551 5.88393 6.68101 5.86407 6.70282C5.81959 6.75167 5.77425 6.79789 5.73068 6.8423C5.46153 7.11666 5.2597 7.32241 5.74186 7.65839C5.97356 7.81985 6.15897 7.95337 6.34394 8.08657C6.54595 8.23204 6.74743 8.37713 7.00812 8.55783C7.07454 8.60387 7.13797 8.65169 7.19975 8.69826C7.43484 8.87549 7.64604 9.03471 7.90697 9.00932C8.05859 8.99456 8.21521 8.84381 8.29474 8.39418C8.48272 7.33157 8.8522 5.02923 8.93759 4.08049C8.94507 3.99736 8.93566 3.89099 8.9281 3.84429C8.92054 3.79759 8.90475 3.73105 8.84735 3.6818C8.77936 3.62347 8.67441 3.61117 8.62748 3.61204C8.41406 3.61602 8.08664 3.73641 6.51089 4.42946Z" fill="#EFEFEF"/>
</svg>
