<svg xmlns="http://www.w3.org/2000/svg" width="512" height="314.923"><g transform="translate(.02)"><path data-name="Path 460" d="M511.98 202.267a104.917 104.917 0 0 1-3.07 25.317q-1.035 4.186-2.4 8.2a96.811 96.811 0 0 1-3.877 9.7q-1.109 2.4-2.343 4.7a63.275 63.275 0 0 1-5.29 25.425 65.547 65.547 0 0 1-31.811 32.776 66.912 66.912 0 0 1-28.4 6.52h-337.6a85.061 85.061 0 0 1-42.783-11.437l-.2-.113q-2.778-1.626-5.416-3.443a84.942 84.942 0 0 1-11.115-9.163 82.716 82.716 0 0 1-12.219-15.14 80.792 80.792 0 0 1-12.428-43.135A101.722 101.722 0 0 1-.02 182.106c0-23.473 7.633-44.887 20.174-61.1a85.894 85.894 0 0 1 8.568-9.533 79.729 79.729 0 0 1 9.8-8.02 76.233 76.233 0 0 1 8.688-5.213 68.811 68.811 0 0 1 3.8-1.8c1.126-.5 2.265-.965 3.417-1.4q2.073-.787 4.2-1.448t4.195-1.156q3.043-.743 6.19-1.208a75.756 75.756 0 0 1 5.216-.569c1.382-.1 2.778-.161 4.182-.178h.761c1.548 0 3.086.061 4.612.165.161-.322.335-.648.5-.965a136.296 136.296 0 0 1 1.874-3.447.109.109 0 0 1 0-.03c.109-.2.217-.4.33-.587a79.937 79.937 0 0 1 1.6-2.752c.252-.435.5-.843.756-1.252a3.329 3.329 0 0 1 .178-.3q.391-.652.8-1.3 2.013-3.217 4.186-6.32l.369-.53c.226-.322.435-.635.687-.956.6-.839 1.217-1.682 1.839-2.508.435-.591.869-1.178 1.339-1.739q1.7-2.173 3.478-4.347t3.7-4.29c.174-.2.348-.387.53-.578l1.856-2.026c.091-.1.17-.183.256-.27.222-.239.435-.478.674-.709 1-1.056 2.017-2.091 3.043-3.121a165.7 165.7 0 0 1 16.649-14.506c.23-.183.465-.356.7-.53 1.1-.83 2.226-1.652 3.347-2.46a176.184 176.184 0 0 1 19.3-12.041c.461-.265.93-.513 1.4-.756a184.309 184.309 0 0 1 18.47-8.5 193.587 193.587 0 0 1 10.493-3.808 205.807 205.807 0 0 1 7.116-2.2q5.616-1.617 11.311-2.9a201.416 201.416 0 0 1 34.01-4.634q5.216-.265 10.55-.274a202.134 202.134 0 0 1 50.859 6.433 1.834 1.834 0 0 0 1.578.822h1.461c.635.174 1.265.348 1.9.53q5.316 1.53 10.48 3.343l.869.313a187.109 187.109 0 0 1 24.739 10.857 178.519 178.519 0 0 1 20.713 12.8q1.526 1.1 3.008 2.208 1.8-1.152 3.66-2.208a71.993 71.993 0 0 1 15.159-6.468 69.16 69.16 0 0 1 34.01-1.33 75.256 75.256 0 0 1 38.105 21.491 88.917 88.917 0 0 1 11.428 14.51c.239.374.478.752.709 1.135a95.634 95.634 0 0 1 7.277 14.506c.074.187.148.361.213.543a100.445 100.445 0 0 1 4.477 14.5c.052.252.113.5.165.752a104.38 104.38 0 0 1 2.139 14.506 2.811 2.811 0 0 0 .035.535q.274 3.786.278 7.651c0 2.3-.078 4.59-.222 6.859 0 .248-.035.5-.057.761-.039.656-.1 1.3-.152 1.965a82.5 82.5 0 0 1 9.294 8.768q1.9 2.073 3.677 4.3a91.551 91.551 0 0 1 9.476 14.506 101.8 101.8 0 0 1 11.578 47.669z" fill="#2D55FF" opacity=".1"/><path data-name="Path 461" d="M462.859 306.781c0 2.969-10.228 5.751-28.077 8.142h-337.6a85.062 85.062 0 0 1-42.783-11.437l-.2-.113c5.129-1.869 14.388-3.612 26.99-5.186l.565-.069c5.651-.691 11.967-1.348 18.87-1.969a4.3 4.3 0 0 0 .526-.048q8.216-.73 17.479-1.369c.2 0 .387-.035.582-.044q3.573-.256 7.294-.487l.956-.061c18.062-1.121 38.592-2.017 60.857-2.608h.026q4.677-.13 9.455-.23 5.312-.126 10.754-.222c2.769-.061 5.573-.1 8.385-.148h.065c12.689-.191 25.8-.287 39.205-.287 33.15 0 64.482.6 92.246 1.691h.078c4.269.165 8.459.348 12.545.535l3.478.165q6.916.33 13.475.709c51.427 2.92 84.829 7.676 84.829 13.036z" fill="#6c63ff" opacity=".1"/><g data-name="Group 319" transform="translate(270.086 171.698)" opacity=".5" fill="#0abb92"><path data-name="Path 462" d="M25.616 116.951a8.256 8.256 0 0 1-.161 1.4q-4.538-.722-9.129-1.3v-.374a7.337 7.337 0 0 1 1.087-3.686 4.044 4.044 0 0 1 7.359.226 7.332 7.332 0 0 1 .844 3.734z"/><ellipse data-name="Ellipse 186" cx="6.09" cy="4.651" rx="6.09" ry="4.651" transform="rotate(-88.19 67.698 49.208)"/><ellipse data-name="Ellipse 187" cx="6.09" cy="4.651" rx="6.09" ry="4.651" transform="rotate(-88.19 63.976 45.364)"/><ellipse data-name="Ellipse 188" cx="6.09" cy="4.651" rx="6.09" ry="4.651" transform="rotate(-88.19 60.252 41.523)"/><ellipse data-name="Ellipse 189" cx="6.09" cy="4.651" rx="6.09" ry="4.651" transform="rotate(-88.19 56.529 37.682)"/><path data-name="Path 463" d="M6.099 35.559a21.6 21.6 0 0 1-1.652-2.608l12.284-1.621-13.223-.317a22.335 22.335 0 0 1 .135-17.666l17.44 9.759L5.108 10.569a22.291 22.291 0 1 1 36.01 26.082 22.081 22.081 0 0 1 2.413 4.143l-16.123 7.737 17.1-5.142a22.317 22.317 0 0 1-4.269 20.826 22.291 22.291 0 1 1-35.019-1.1 22.291 22.291 0 0 1 .869-27.551z"/><path data-name="Path 464" d="M45.452 50.591a22.17 22.17 0 0 1-5.216 13.623 22.291 22.291 0 1 1-35.019-1.1C2.36 59.231 45.53 48.091 45.452 50.591z" opacity=".1"/></g><g data-name="Group 320" transform="translate(204.012 171.698)" opacity=".5" fill="#0abb92"><path data-name="Path 465" d="M25.616 116.951a8.25 8.25 0 0 1-.161 1.4q-4.538-.722-9.129-1.3v-.374a7.336 7.336 0 0 1 1.087-3.686 4.044 4.044 0 0 1 7.359.226 7.333 7.333 0 0 1 .844 3.734z"/><ellipse data-name="Ellipse 190" cx="6.09" cy="4.651" rx="6.09" ry="4.651" transform="rotate(-88.19 67.697 49.211)"/><ellipse data-name="Ellipse 191" cx="6.09" cy="4.651" rx="6.09" ry="4.651" transform="rotate(-88.19 63.975 45.368)"/><ellipse data-name="Ellipse 192" cx="6.09" cy="4.651" rx="6.09" ry="4.651" transform="rotate(-88.19 60.251 41.527)"/><ellipse data-name="Ellipse 193" cx="6.09" cy="4.651" rx="6.09" ry="4.651" transform="rotate(-88.19 56.527 37.685)"/><path data-name="Path 466" d="M6.099 35.559a21.6 21.6 0 0 1-1.652-2.608l12.284-1.621-13.223-.317a22.335 22.335 0 0 1 .135-17.666l17.44 9.759L5.108 10.569a22.291 22.291 0 1 1 36.01 26.082 22.084 22.084 0 0 1 2.413 4.143l-16.123 7.738 17.1-5.142a22.317 22.317 0 0 1-4.269 20.826 22.291 22.291 0 1 1-35.019-1.1 22.291 22.291 0 0 1 .869-27.551z"/><path data-name="Path 467" d="M45.452 50.591a22.17 22.17 0 0 1-5.216 13.623 22.291 22.291 0 1 1-35.019-1.1C2.36 59.231 45.53 48.091 45.452 50.591z" opacity=".1"/></g><g data-name="Group 321" transform="translate(360.826 68.336)" opacity=".5" fill="#0abb92"><path data-name="Path 468" d="M49.287 225.069a16.213 16.213 0 0 1-.317 2.643q-8.737-1.4-17.6-2.5v-.717a14.128 14.128 0 0 1 2.1-7.1c1.739-2.726 4.347-4.434 7.229-4.347s5.39 1.96 6.955 4.782a14.14 14.14 0 0 1 1.633 7.239z"/><ellipse data-name="Ellipse 194" cx="11.728" cy="8.959" rx="11.728" ry="8.959" transform="rotate(-88.19 130.26 94.712)"/><ellipse data-name="Ellipse 195" cx="11.728" cy="8.959" rx="11.728" ry="8.959" transform="rotate(-88.19 123.093 87.314)"/><ellipse data-name="Ellipse 196" cx="11.728" cy="8.959" rx="11.728" ry="8.959" transform="rotate(-88.19 115.927 79.915)"/><ellipse data-name="Ellipse 197" cx="11.728" cy="8.959" rx="11.728" ry="8.959" transform="rotate(-88.282 108.04 72.494)"/><path data-name="Path 469" d="M11.708 68.38a43.153 43.153 0 0 1-3.178-5.012l23.647-3.121-25.451-.613a42.992 42.992 0 0 1 .252-34.01l33.58 18.783-30.75-24.134a42.913 42.913 0 1 1 69.321 50.233 42.906 42.906 0 0 1 4.647 7.977L52.734 93.388l32.911-9.911a42.926 42.926 0 0 1-8.185 40.057 42.913 42.913 0 1 1-67.421-2.126 42.926 42.926 0 0 1 1.669-53.033z"/><path data-name="Path 470" d="M87.475 97.312a42.748 42.748 0 0 1-10 26.229 42.913 42.913 0 1 1-67.421-2.126c-5.536-7.48 77.573-28.915 77.421-24.103z" opacity=".1"/></g><path data-name="Path 471" d="m68.592 294.171 4.56-.013h6.429l8.129-132.051 80.5-134.333-3.5-3.756v-9.512L77.651 158.994z" fill="#f1c0c0"/><path data-name="Path 472" d="M73.639 294.158h5.942l8.128-132.052 80.5-134.333-3.5-3.756-83.033 136.077z" opacity=".1"/><path data-name="Path 473" d="m55.156 295.27 208.59 15.962.178.013 201.868-12.415.152-.009v-8.524l-222.435-4.08-185.575-.178h-1.356l-.148.956z" fill="#f1c0c0"/><path data-name="Path 474" d="m55.156 295.27 208.59 15.962.178.013 201.868-12.415.152-.165v-8.19h-.178l-202.02 6.742-205.812-11.18h-.03l-.365.239-1.108.717z" opacity=".1"/><path data-name="Path 475" d="m55.156 295.27 208.59 15.962v-14.01L57.538 286.276l-1.108.717z" opacity=".1"/><path data-name="Path 476" d="m164.686 23.838 91.959 98.7-2.839 173.618 7.811.943.13.017h7.812l.935-167.122 172.2 57.519 2.9 102.414 6.286.7 2.13.239-4.929-110.46-180.007-63.2-98.707-102.601h-5.681z" fill="#f1c0c0"/><path data-name="Path 477" d="m269.782 126.8.709 3.195 172.2 57.519 2.9 102.414 6.286.7-4.93-105.248z" opacity=".1"/><path data-name="Path 478" d="m164.686 23.838 91.959 98.7-2.839 173.618 7.811.943 2.13-180.242-99.061-102.252z" opacity=".1"/><path data-name="Path 479" d="m270.116 196.477 63.157 12.437h.022l110.617 21.791 5.064-2.03-.017-.356-.33-7.064-178.448-36.054z" fill="#f1c0c0"/><path data-name="Path 480" d="m333.295 208.918 110.617 21.79 5.064-2.03-.017-.356z" opacity=".1"/><path data-name="Path 481" d="m337.524 152.386 1.71 94.04.882 48.247 7.777-.261 4.895-.165-1.521-140.5-3.373-1.122-.739-.239z" fill="#f1c0c0"/><path data-name="Path 482" d="M337.594 152.364v.022l1.639 94.042.882 48.247 7.777-.261v-142.05z" opacity=".1"/><path data-name="Path 483" d="M215.71 176.403a9.912 9.912 0 0 1 1.3.848 8.631 8.631 0 0 1 1.3 1.43c1.865 2.412 3.586 5.216 3.4 8.259a3.36 3.36 0 0 1-.969 2.391 4.345 4.345 0 0 1-2.882.687 6.136 6.136 0 0 1-3.2-.565c-.948-.565-1.739-1.665-2.86-1.639a1.469 1.469 0 0 1-.478 0c-.387-.126-.465-.635-.717-.956-.435-.578-1.352-.435-2.034-.183a2.949 2.949 0 0 1-2.113.339 2.194 2.194 0 0 1-.917-.917c-1.613-2.608-1.956-5.742-2.26-8.772-.187-1.843-1.613-8.129 2.321-6.7a32.618 32.618 0 0 1 4.947 2.8z" fill="#3f3d56"/><path data-name="Path 484" d="M211.824 177.024a1.939 1.939 0 0 0 2.386-.1 3.6 3.6 0 0 0 1.161-2.252c.435-.135.656.435.935.782.487.591 1.478.583 1.921 1.213.309.435.239 1.039.456 1.53.283.635.982.965 1.461 1.478a5.033 5.033 0 0 1 .956 1.908l.713 2.139a10.572 10.572 0 0 1 .652 2.769 3.586 3.586 0 0 1-.826 2.647c-.956 1.03-2.526 1.139-3.912 1.108a5.034 5.034 0 0 1-1.374-.161 3.9 3.9 0 0 1-2.343-2.869 36.189 36.189 0 0 1-.482-3.834 15.035 15.035 0 0 0-1.087-3.643c-.383-.9-1.435-2.252-1.417-3.212.313.006.539.293.8.497z" fill="#3f3d56"/><path data-name="Path 485" d="M213.385 172.621a7.175 7.175 0 0 1-.352-1.908 8.307 8.307 0 0 1 1.2-3.695l-4.969.674a2.2 2.2 0 0 0-1.608.7 1.739 1.739 0 0 0 0 1.6 8.193 8.193 0 0 1 .591 1.552 7.744 7.744 0 0 0 .161 1.4 2.954 2.954 0 0 0 .639.9 30.139 30.139 0 0 1 3.547 5.268c-.03-.052 3-2.4 2.873-3.16-.07-.435-.943-.956-1.222-1.374a7 7 0 0 1-.86-1.957z" fill="#be6f72"/><path data-name="Path 486" d="M255.985 155.638v4.282l-73.32 14.3-3.8 2.3h-13.127v-2.413l72.038-17.405z" fill="#f1c0c0"/><path data-name="Path 487" d="m255.985 159.919-73.32 14.3-3.8 2.3h-13.127l72.572-15.532z" opacity=".1"/><path data-name="Path 488" d="M197.118 277.186a5.681 5.681 0 0 0-6.912-1.469 1.82 1.82 0 0 0-.635.5c-.435.609-.156 1.448-.117 2.2.1 1.834-1.361 3.326-2.673 4.608a6.32 6.32 0 0 0-1.739 2.356 2.208 2.208 0 0 0 .769 2.608 3.206 3.206 0 0 0 1.191.33 12.853 12.853 0 0 0 4.217.117 4.568 4.568 0 0 0 3.347-2.33 2.456 2.456 0 0 1 .561-.926c.765-.6 1.939.1 2.808-.326.717-.356.748-.917.756-1.656a9.59 9.59 0 0 0-1.573-6.012z" fill="#2D55FF"/><path data-name="Path 489" d="M207.551 277.109a14.312 14.312 0 0 1 .678 4.447 4.291 4.291 0 0 1-.4 2.534 3.463 3.463 0 0 1-2.265 1.3 5.193 5.193 0 0 1-5.082-1.417 5.362 5.362 0 0 1-.917-4.034c.139-1.169.435-2.539-.4-3.369-.217-.222-.5-.378-.7-.617a2.071 2.071 0 0 1-.13-1.982 8.608 8.608 0 0 0 .682-1.961c.035-.322 5.886.226 6.425.491.735.361.622.965.843 1.7.301 1.021.892 1.934 1.266 2.908z" fill="#2D55FF"/><path data-name="Path 490" d="M208.624 214.661a4.83 4.83 0 0 1 1.769 3.56c.491 3.717-.37 7.472-.435 11.224-.061 5.255 1.461 10.607.161 15.7-.778 3.043-.117 6.52-.848 9.594-.217.913-.617 1.774-.826 2.686a11.721 11.721 0 0 0 .635 5.981 6.177 6.177 0 0 1 .369 1.621 5.834 5.834 0 0 1-.635 2.452l-2.608 6.168c-.291.691-1.439.8-2.174.9-1.382.165-2.925.283-4.025-.574a5.149 5.149 0 0 1-1.534-3.63 55.638 55.638 0 0 1-.435-7.751 6.386 6.386 0 0 0-.178-2.013 17.632 17.632 0 0 1-.909-2.173c-.183-1.017.335-2.017.526-3.043a9.164 9.164 0 0 0-.043-2.821 111.76 111.76 0 0 0-.587-4.164 18.456 18.456 0 0 1 .435-5.781 15.939 15.939 0 0 0-.435-5.486 15.12 15.12 0 0 1-.543 4.347c-.23.691-.561 1.352-.761 2.056-.891 3.16 1.008 6.477.739 9.75-.126 1.53-.726 3.043-.556 4.551a15.36 15.36 0 0 0 .982 3.169 4.107 4.107 0 0 1 0 3.238c-1.413 2.669-.356 6.3.909 9.037a12.193 12.193 0 0 1 .669 1.5c.374 1.235.061 2.56.161 3.847a2.426 2.426 0 0 1-2.039-.613c-.191-.2-.348-.435-.535-.643a5.309 5.309 0 0 0-1.817-1.135 2.386 2.386 0 0 0-1.3-.3 2.608 2.608 0 0 0-1.239.769 12.136 12.136 0 0 1-1.365 1.039 1.617 1.617 0 0 1-.7.309.613.613 0 0 1-.639-.326.773.773 0 0 1-.048-.226 34.406 34.406 0 0 1-.256-3.956c0-2.273-2.721-3.838-3.065-6.086-.274-1.813.235-3.66.065-5.486a26.66 26.66 0 0 1-.326-2.8c0-.609.139-1.2.187-1.808a13.527 13.527 0 0 0-.03-2.013l-.135-2.1a18.141 18.141 0 0 0-1.091-6.086 20.679 20.679 0 0 1-1.7-6.99c-.087-1.521-.03-3.043-.2-4.569a22.494 22.494 0 0 1-.4-4.13c.083-1.069.435-2.1.517-3.173.17-2.056-.613-4.056-1.226-6.025s-1.065-4.151-.261-6.051a1.986 1.986 0 0 1 .556-.809 2.427 2.427 0 0 1 1.026-.383 79.6 79.6 0 0 1 22.7-1.448 7.537 7.537 0 0 1 3.498 1.094z" fill="#3f3d56"/><circle data-name="Ellipse 198" cx="6.964" cy="6.964" r="6.964" transform="translate(176.983 154.564)" fill="#be6f72"/><path data-name="Path 491" d="M182.599 170.226a2.487 2.487 0 0 1 0 1.213 2.748 2.748 0 0 1-.456.765 19.654 19.654 0 0 1-2.23 2.426 4.039 4.039 0 0 0 2.082 2.056 12.086 12.086 0 0 0 2.873.822 4.052 4.052 0 0 0 1.513.1 4.012 4.012 0 0 0 1.3-.591l3.869-2.317a7.727 7.727 0 0 0 1.608-1.161 3.96 3.96 0 0 0 1.122-2.721.748.748 0 0 0-.139-.513.913.913 0 0 0-.53-.222 4.715 4.715 0 0 1-3.043-2.656 14.069 14.069 0 0 1-1.056-4.03l-4.125 2.173c-.613.326-1.221.652-1.856.935-.4.183-1.221.335-1.508.7-.545.691.433 2.199.576 3.021z" fill="#be6f72"/><path data-name="Path 492" d="M179.939 173.364a4.585 4.585 0 0 0-1.335 1.8 4.7 4.7 0 0 0 .243 2.647 78.982 78.982 0 0 1 2.608 11.211c.365 2.608.5 5.255.678 7.894.365 5.382.9 13.962 1.6 19.309 2.608.117 5.151-.643 7.738-.922 4.834-.513 9.811.661 14.545-.435-1.148-4.534-2.3-12.276-3.443-16.805a32.059 32.059 0 0 1-1.052-5.455c-.1-1.326-.039-2.656-.022-3.99.039-2.608-.1-5.216-.248-7.825a49.636 49.636 0 0 0-1.052-9.063 1.686 1.686 0 0 0-.5-1 2.042 2.042 0 0 0-1.517-.135 6.6 6.6 0 0 1-4.512-1.069c-.574-.391-1.343-.869-1.878-.435a1.87 1.87 0 0 0-.435.926 4.629 4.629 0 0 1-2.721 2.682 13.618 13.618 0 0 1-3.851.791 1.891 1.891 0 0 1-1.2-.135c-.617-.378-.661-1.739-1.439-1.83-.676-.071-1.746 1.4-2.207 1.839z" fill="#3f3d56"/><path data-name="Path 493" d="M190.224 183.98c-1.6-1.534-2.308-3.76-3.477-5.651a12.58 12.58 0 0 0-3-3.3 8.963 8.963 0 0 1-1.634-1.387c-.413-.509-.726-1.187-1.352-1.382a1.634 1.634 0 0 0-1.465.4 14.411 14.411 0 0 0-1.087 1.156c-1.843 1.908-5.082 2.173-6.542 4.382a3.591 3.591 0 0 0-.778 1.63 12.632 12.632 0 0 0 2.321 9.085 3.086 3.086 0 0 0 1.608 1.3 5.033 5.033 0 0 0 .313 2.391 63.923 63.923 0 0 0 2.96 8.064 19.5 19.5 0 0 0-.583 3.125c-.3 2.656-.022 5.351-.309 8.012-.235 2.173-.869 4.29-.891 6.468 0 .348.03.761.33.939a1 1 0 0 0 .517.109l5.347.161a43.394 43.394 0 0 0 9.294-.391 3.867 3.867 0 0 0 1.169-.37 3.927 3.927 0 0 0 1.543-3.043 26.516 26.516 0 0 0 .256-4.547c.648 2.047 1.417 4.164 3.373 5.051a7.567 7.567 0 0 0 3.352.4 63.11 63.11 0 0 0 7.3-.752.961.961 0 0 0 1.065-1.117l.026-2.373c.052-4.821-1.143-9.429-1.608-14.228a30.936 30.936 0 0 0-.5-4.525c-.152-.622-.374-1.23-.509-1.856a13.283 13.283 0 0 1-.217-1.856l-.339-4.782c-.161-2.213-.391-4.347-.561-6.555a31.731 31.731 0 0 0-.93-6.373c-.378-1.3-1.165-2.782-2.526-2.943a5.206 5.206 0 0 0-2.121.456 8.572 8.572 0 0 1-5.216-.022 7.348 7.348 0 0 0-1.626-.435 1.6 1.6 0 0 0-1.487.617 2.23 2.23 0 0 0-.23 1.1 57.976 57.976 0 0 1-1.786 13.042z" fill="#2D55FF"/><path data-name="Path 494" d="M183.229 184.11a26.392 26.392 0 0 0-6.642-5.608 5.305 5.305 0 0 0-3.3-.73 2.47 2.47 0 0 0-2.121 2.321 15.019 15.019 0 0 0 .6 2.03 21.32 21.32 0 0 0 .174 2.373 4.017 4.017 0 0 0 .869 1.334l3.078 3.647a19.813 19.813 0 0 0 4.286 4.117 6.443 6.443 0 0 0 5.695.8 7 7 0 0 0 3.121-2.865c.765-1.217 1.3-2.547 2.021-3.8a18.889 18.889 0 0 1 4.347-5.273 4.829 4.829 0 0 1-2.608-1.3 4.308 4.308 0 0 1-.413-.748l-.7-1.521a1.738 1.738 0 0 0-1.3.491 10.928 10.928 0 0 1-.969.987c-.613.461-1.443.587-2 1.113a5.3 5.3 0 0 0-.582.73 4.877 4.877 0 0 1-3.556 1.902z" fill="#3f3d56"/><path data-name="Path 495" d="M195.518 175.021c1.508-2.752 1.439-6.051 1.869-9.159a4.182 4.182 0 0 1 .83-2.273c.869-.982 2.4-1 3.717-.869.387.043.869.226.848.613a.783.783 0 0 1-.2.369 10.342 10.342 0 0 0-2.147 5.7c.683.474 1.739-.5 2.4 0 .435.365.235 1.087-.026 1.608q-.908 1.813-1.874 3.6a11.558 11.558 0 0 1-1.987 2.865c-.552.53-1.2.948-1.761 1.469-1.3 1.221-2.091 2.947-3.438 4.138a.7.7 0 0 1-.435.222.73.73 0 0 1-.456-.2 6.59 6.59 0 0 1-1.643-1.987c-.513-.948-.435-1.226.374-1.9a14.367 14.367 0 0 0 3.929-4.196z" fill="#be6f72"/><path data-name="Path 496" d="M180.708 182.241c.261.161.582.343.869.209a.9.9 0 0 0 .291-.283 10.229 10.229 0 0 0 1.235-2.147.826.826 0 0 0 .091-.348c0-.278-.248-.482-.478-.643a17.723 17.723 0 0 0-3.951-1.878 8.153 8.153 0 0 0-3.565-.7 3.4 3.4 0 0 0-2.378 1.208c-.869 1.117.587 1.456 1.5 1.861 2.113.956 4.4 1.513 6.386 2.721z" fill="#2D55FF"/><path data-name="Path 497" d="M179.339 189.631a.639.639 0 0 0 .183.548c.126-.617-.039-1.269.091-1.891.191-.935 1.1-1.639 1.178-2.578-1.665-.326-1.439 2.913-1.452 3.921z" opacity=".1"/><path data-name="Path 498" d="M255.984 155.638v4.282l-17.674 1.078-.535-4.286z" opacity=".2"/><path data-name="Path 499" d="M177.681 162.562c1.1-.9.465-2.786 1.213-3.995a3.882 3.882 0 0 1 1.891-1.3 8.6 8.6 0 0 1 2.76-.765 3.2 3.2 0 0 1 2.608.961c.283.322.474.713.739 1.048a2.826 2.826 0 0 0 2.739.948c.578-.13 1.178-.57 1.139-1.161a1.639 1.639 0 0 0-.522-.93l-1.243-1.378c-1.413-1.565-2.982-3.225-5.055-3.617a8.672 8.672 0 0 0-4.312.578c-.561.187-1.191.465-1.348 1.035-.1.391.052.817-.039 1.213-.178.787-1.187 1.052-1.656 1.713s-.326 1.443-.461 2.174a19 19 0 0 0-.574 2.2c-.03.456.2 1.3.713 1.469s1.088-.736 1.408-.193z" fill="#3f3d56"/><path data-name="Path 500" d="M190.346 157.668a13.04 13.04 0 0 0-2.313-5.286 9.263 9.263 0 0 0-4.117-3.269 5.894 5.894 0 0 0-5.125.4 7.441 7.441 0 0 0-2.56 3.23c-1.126 2.426-1.543 5.39-.235 7.72.522-.635 1.417-.348 2.208-.578a23.031 23.031 0 0 0 2.773-1.356c2.848-1.252 6.326-.235 9.369-.861z" fill="#ffb74d"/><path data-name="Path 501" d="M176.662 157.531a2.656 2.656 0 0 1 .391-2.247.283.283 0 0 1 .23-.1.3.3 0 0 1 .178.156 9.736 9.736 0 0 1 .817 1.6 1.66 1.66 0 0 0-1.739.674" opacity=".1"/><path data-name="Path 502" d="m186.82 155.325-.156-1.552a.708.708 0 0 1 .03-.383.491.491 0 0 1 .635-.174 1.3 1.3 0 0 1 .509.509 9.13 9.13 0 0 1 .9 1.769 5.26 5.26 0 0 0-2.117.026" opacity=".1"/><path data-name="Path 503" d="M190.71 218.307v3.547l-3 .2h-15.748v-3.747z" opacity=".1"/><path data-name="Path 504" d="M190.715 218.308v3.747h-18.753l-49.807-62.392v-2.947h10.441z" fill="#f1c0c0"/><path data-name="Path 505" d="M190.715 218.308v3.747h-18.753l-49.807-62.392v-2.947h10.441z" opacity=".1"/><path data-name="Path 506" d="M190.715 218.308v3.747h-18.753l-49.807-62.392v-2.947l50.077 61.592z" opacity=".1"/><path data-name="Path 507" d="M128.688 280.838a1.3 1.3 0 0 1-1.139 1.535 7.746 7.746 0 0 0-3.347 1.739c-.856.926-1.026 2.643 0 3.4a3.3 3.3 0 0 0 1.739.474 11.783 11.783 0 0 0 5.808-.726c1.278-.591 2.482-1.6 3.886-1.508.726.043 1.5.383 2.147.052s.83-1.252.835-2.021a14.966 14.966 0 0 0-.717-4.734 19 19 0 0 0-3.16-.435l-3.352-.435c-.635-.083-2-.561-2.5-.03s-.2 2.063-.2 2.689z" fill="#2D55FF"/><path data-name="Path 508" d="M148.685 269.992a10.5 10.5 0 0 0 .687 2.278 5.3 5.3 0 0 0 2.2 3.013 3.926 3.926 0 0 0 3.356-.161 2.764 2.764 0 0 0 1.117-.848 3.364 3.364 0 0 0 .435-1.952 10.662 10.662 0 0 0-.869-4.916c-.661-1.3-1.813-2.426-1.83-3.869l-3.96.765a1.131 1.131 0 0 0-.582.23 1 1 0 0 0-.252.474 12.94 12.94 0 0 0-.302 4.986z" fill="#2D55FF"/><path data-name="Path 509" d="M101.394 228.697a6.471 6.471 0 0 0 .635 4.108 3.179 3.179 0 0 0 3.6 1.526.526.526 0 0 0 .326-.248.613.613 0 0 0-.056-.435 6.416 6.416 0 0 1 .135-4.834c.087-.2.274-.435.478-.356a.435.435 0 0 1 .2.2 2.274 2.274 0 0 1 .3 1.2 4.462 4.462 0 0 0-.035 1.152c.083.374.483.726.83.565a.869.869 0 0 0 .4-.561c.969-2.8.53-5.868.087-8.8a.461.461 0 0 0-.517-.483c-2.052-.2-3.173-.7-4.347 1.213a11.916 11.916 0 0 0-2.036 5.753z" fill="#2D55FF"/><path data-name="Path 510" d="M125.381 221.564a26.657 26.657 0 0 0-.9 12.528l.456 3.765c.156 1.269.309 2.534.53 3.79a10.063 10.063 0 0 1 .23 1.969 10.547 10.547 0 0 1-.309 1.934 22.6 22.6 0 0 0-.456 4.043c-.048 2.173.222 4.347.391 6.52a72.613 72.613 0 0 1-.152 13.006 4.877 4.877 0 0 0 .713 3.352 4.311 4.311 0 0 1 .63 1.035c.326 1-.435 1.991-.63 3.012a3.043 3.043 0 0 0 2.53 3.478c3.478.413 7.051.226 10.185 1.817.33-.965-.391-2.06-.061-3.043.209-.608.782-1 1.174-1.517a4.417 4.417 0 0 0 .748-2.652 9.69 9.69 0 0 0-.643-3.595 7.776 7.776 0 0 1-.869-2.925 3.7 3.7 0 0 0-.026-1.5 2.342 2.342 0 0 0-.561-.7 8.837 8.837 0 0 1-2.27-5.154 23.725 23.725 0 0 1 .183-5.712 9.7 9.7 0 0 1 1.643-5.1 32.747 32.747 0 0 1 .917-12.715c.113-.383.291-.826.682-.917a.974.974 0 0 1 .835.33 5.7 5.7 0 0 1 1.3 2.452 5.346 5.346 0 0 1 .409 2.969c-.1.435-.313.817-.435 1.234a3.66 3.66 0 0 0 .13 2.552 2.452 2.452 0 0 1 .313.961 2.661 2.661 0 0 1-.261.835 3.843 3.843 0 0 0 .363 3.111 11.252 11.252 0 0 0 2.03 2.491 9.129 9.129 0 0 0 .283 5.025.635.635 0 0 1 .057.483c-.078.165-.278.226-.435.343-.435.356-.165 1.03.126 1.5a34.286 34.286 0 0 0 2.639 3.66c.869 1.039.791 3.043 2.087 3.417a3.911 3.911 0 0 0 1.652 0c1.278-.2 2.7-.565 3.33-1.7a4.562 4.562 0 0 1 .761-1.378c.4-.348.917-.409 1.139-.826s-.026-.965.048-1.448.5-.869.63-1.378c.322-1.174-1.048-2.139-1.234-3.338-.27-1.739 1.921-3.043 1.83-4.782-.191-3.777-.313-7.572-.509-11.35a81.847 81.847 0 0 1-.1-10.167c.152-2.108.435-4.317-.339-6.277-1.113-2.765-4.182-4.317-7.151-4.612s-5.929.409-8.872.869a56.075 56.075 0 0 1-14.761.305z" fill="#3f3d56"/><circle data-name="Ellipse 199" cx="6.964" cy="6.964" r="6.964" transform="translate(127.241 166.088)" fill="#fbbebe"/><path data-name="Path 511" d="M131.371 181.315a2.969 2.969 0 0 1-2.839 1.8 3.5 3.5 0 0 0 1.043 2.917 12.38 12.38 0 0 0 11.85 4.064 5.848 5.848 0 0 0 2.334-.974 5.177 5.177 0 0 0 1.782-3.086 15.345 15.345 0 0 0 .17-3.63.939.939 0 0 0-.191-.669.957.957 0 0 0-.609-.2 10.554 10.554 0 0 1-4.295-.909c-1.291-.722-2.208-2.352-1.587-3.69a15.586 15.586 0 0 1-2.973.352c-1.048.148-2.1.313-3.138.5a5.7 5.7 0 0 0-1.474.278c-.63.326-.4.165-.248.756a3.6 3.6 0 0 1 .175 2.491z" fill="#fbbebe"/><path data-name="Path 512" d="M136.67 185.548a11.529 11.529 0 0 1-2.786-.309 3.912 3.912 0 0 1-2.286-1.526c-.322-.487-.53-1.1-1.043-1.374-.839-.435-1.8.3-2.465.974a8.955 8.955 0 0 1-2.1 1.687c-.93.491-2.017.665-2.9 1.243a7.276 7.276 0 0 0-1.739 1.878l-6.16 8.39c-2.473 3.373-4.625 6.994-6.829 10.554-1.908 3.082-2.908 6.629-4.347 9.954a1.113 1.113 0 0 0-.135.669c.052.226.326.409.517.278-.648.643-.078 1.739-.23 2.643a3.243 3.243 0 0 1-1.035 1.621 8.175 8.175 0 0 1 2.869.135 8.792 8.792 0 0 1 2.712 1.3c.526-.083.478-1.017.869-1.365.235-.2.582-.178.891-.239 1.161-.226 1.621-1.621 2.513-2.408.743-.656 1.8-.869 2.582-1.487 1.278-1 1.552-2.791 2.221-4.273.569-1.256 1.465-2.352 1.965-3.638a15.675 15.675 0 0 1 .948-2.508 7.181 7.181 0 0 1 3.478-2.5 5.759 5.759 0 0 1 2.647-.709 24.585 24.585 0 0 0 .145 5.992c.152.7.365 1.374.548 2.065a38.881 38.881 0 0 1 1.065 9.563 29.1 29.1 0 0 1 6.086-.73c1.613-.048 3.221.161 4.834.13 1.913-.035 3.8-.4 5.716-.535a10.678 10.678 0 0 1 5.6.869 53.231 53.231 0 0 1 .23-8.259l.461-4.321a26.558 26.558 0 0 1 .578-3.73c.252-.991.617-1.947.9-2.934.978-3.478.8-7.19.613-10.811a13.626 13.626 0 0 0-1.656-5.347 14.469 14.469 0 0 0-1.043-1.774 10.272 10.272 0 0 0-8.981-4.216 1.816 1.816 0 0 0-.643.139 2.143 2.143 0 0 0-.822.978 10.65 10.65 0 0 1-3.786 3.93z" fill="#3f3d56"/><path data-name="Path 513" d="M128.08 175.359c.2-.435.722-.6 1.043-.943.617-.661.339-1.717.435-2.608a3.747 3.747 0 0 1 2.478-2.86 8.007 8.007 0 0 1 3.912-.248 3.786 3.786 0 0 1 1.765.587c.226.165.435.378.648.53a1.739 1.739 0 0 0 2.365-.552c-1.539-1.852-3.243-3.808-5.582-4.377a11.451 11.451 0 0 0-2.439-.23 7.919 7.919 0 0 0-3.2.374 5.333 5.333 0 0 0-2.808 3.243 15.765 15.765 0 0 0-.682 4.347 16.375 16.375 0 0 0 0 2.956 8.173 8.173 0 0 0 1.452 3.725 1.127 1.127 0 0 0 .435.4c1.982.872.017-3.984.178-4.344z" fill="#3f3d56"/><path data-name="Path 514" d="M140.499 168.192c-.239-2.047-1.7-3.738-3.252-5.1a11.988 11.988 0 0 0-4.369-2.63 5.838 5.838 0 0 0-4.929.6 7.573 7.573 0 0 0-2.4 3.3 10.384 10.384 0 0 0-1.048 4.782 5.155 5.155 0 0 0 2.334 4.138 4.39 4.39 0 0 1 2.26-1.456 110.659 110.659 0 0 1 11.404-3.634z" fill="#ffb74d"/><path data-name="Path 515" d="M127.315 167.34c.139 0 .23.143.3.261a11.014 11.014 0 0 1 .909 1.739c-.509.109-1.382.23-1.634-.217-.136-.227.025-1.803.425-1.783z" opacity=".1"/><path data-name="Path 516" d="M137.226 166.358c-.1.1-.226-.1-.226-.252v-1.687a.248.248 0 0 1 .03-.135.2.2 0 0 1 .143-.07c.352-.039.643.261.869.548a9.178 9.178 0 0 1 .891 1.482l-1.839-.057" opacity=".1"/><path data-name="Path 517" d="M160.169 194.287a11.376 11.376 0 0 1 1.278-1.048 19.287 19.287 0 0 1 4.012-1.635 5.294 5.294 0 0 0 3.252-2.691 6.391 6.391 0 0 0 .252-2.608 2.608 2.608 0 0 0-.191-1.074 2.135 2.135 0 0 0-.687-.748c-1.835-1.356-4.295-1.465-6.573-1.326a41.2 41.2 0 0 0-14.523 3.625 1.26 1.26 0 0 0-.609.435 1.243 1.243 0 0 0-.117.6 10 10 0 0 0 .491 3.786c.6 1.548 1.834 2.8 2.352 4.373.235.709.313 1.461.517 2.173a3.043 3.043 0 0 0 1.221 1.817c1.717 1.026 3.338-.352 4.53-1.422z" fill="#3f3d56"/><path data-name="Path 518" d="m137.682 200.307-2.2-4.808a16.823 16.823 0 0 1-.835-2.056c-.252-.839-.374-1.708-.609-2.552-.774-2.808-2.726-5.147-3.678-7.9a1.5 1.5 0 0 0-.356-.665 1.161 1.161 0 0 0-.969-.174c-1.33.23-2.369 1.243-3.586 1.817-.565.261-1.174.435-1.739.735a2.174 2.174 0 0 0-1.165 1.387 3.39 3.39 0 0 0 .474 1.952 22.043 22.043 0 0 1 1.5 8.572c.039 1.965-.061 4.073-1.221 5.651-2.23 3.043-.8 7.511.03 11.193.1.435.217.9.287 1.365a12.545 12.545 0 0 1 .1 1.739 13.607 13.607 0 0 1-.926 5.734 6.417 6.417 0 0 0 2.608.739q3.786.482 7.6.678a8.287 8.287 0 0 0 2.386-.122 4.347 4.347 0 0 0 3.212-4.26 5.374 5.374 0 0 0 1.269 3.347 5.056 5.056 0 0 0 3.334 1.026 61.986 61.986 0 0 0 10.041-.283 1.74 1.74 0 0 0 .617-.143c.643-.322.678-1.208.626-1.921-.1-1.334-.2-2.669-.356-3.995a16.35 16.35 0 0 1-.209-2.556 14.705 14.705 0 0 1 .435-2.608 29.581 29.581 0 0 0 .848-8.259 13.939 13.939 0 0 1-.083-2.039c.113-1.535.922-3 .769-4.521-.435-4.486-.787-9.089-2.039-13.419a3.478 3.478 0 0 0-1.187-2.047c-.869-.582-2.091-.278-3.086-.648a7.714 7.714 0 0 1-1.326-.787 6.086 6.086 0 0 0-3-.921 2.542 2.542 0 0 0-2.173.791 3.155 3.155 0 0 0-.435 1.187c-.63 2.652-1.369 5.273-2.108 7.894l-.709 2.513-1.9 6.746c-.175.718-.049.944-.241 1.618z" fill="#2D55FF"/><path data-name="Path 519" d="m148.797 173.986 42.048 44.187v3.747h-18.748l-31.6-41.239" fill="#f1c0c0"/><path data-name="Path 520" d="m148.797 173.986 42.048 44.187v3.747h-18.748l-31.6-41.239" opacity=".1"/><path data-name="Path 521" d="m141.168 180.098.135.048 31.063 38.027h18.479v3.747h-18.748l-31.6-41.239z" opacity=".1"/><path data-name="Path 522" d="M146.006 181.029c-1.521.665-3.212 1.517-3.669 3.117a1.791 1.791 0 0 0-.057.869 1.773 1.773 0 0 0 1.6 1.221 5.217 5.217 0 0 0 2.091-.383l8.976-2.965c.243-.078.522-.2.583-.435a.748.748 0 0 0-.087-.435c-.278-.678-.552-2.065-1.135-2.539-.478-.383-1.426-.248-2-.239a16.251 16.251 0 0 0-6.302 1.789z" fill="#2D55FF"/><path data-name="Path 523" d="M154.009 183.241a14.437 14.437 0 0 1 4.456.691 7.937 7.937 0 0 1 3.69 2.521 2.765 2.765 0 0 1 .583 1.139c.087.435 1.5.7 1.191.991.952-.152.726.3 1.691.287a3.2 3.2 0 0 0 2.586-1.026 3.36 3.36 0 0 0 .509-2.126 3.62 3.62 0 0 0-.287-1.5 4.441 4.441 0 0 0-2.356-1.826l-7.764-3.551a5.154 5.154 0 0 0-1.434-.509 5.362 5.362 0 0 0-1.265.03l-3.517.4a5.273 5.273 0 0 1 2.4 4.638" fill="#3f3d56"/></g></svg>