<svg xmlns="http://www.w3.org/2000/svg" width="209.757" height="249.402"><circle data-name="Ellipse 372" cx="23.25" cy="23.25" r="23.25" transform="translate(29.467 22.612)" fill="#c9cbff"/><circle data-name="Ellipse 373" cx="23.25" cy="23.25" r="23.25" transform="translate(162.848 30.362)" fill="#c9cbff"/><path data-name="Path 5360" d="M186.507 29.546a23.248 23.248 0 0 0-21.171 13.639 23.247 23.247 0 0 1 36.628 26.972 23.246 23.246 0 0 0-15.459-40.611z" fill="#6c63ff"/><path data-name="Path 5361" d="M52.309 21.796a23.248 23.248 0 0 1 21.169 13.639A23.247 23.247 0 0 0 36.85 62.407a23.246 23.246 0 0 1 15.459-40.611z" fill="#6c63ff"/><path data-name="Path 5362" d="M120.019 161.705a59.759 59.759 0 1 1-17.5-42.458 60.01 60.01 0 0 1 17.5 42.458z" fill="#c9cbff"/><path data-name="Path 5363" d="M120.019 161.705a59.759 59.759 0 0 1-5.388 24.878 71.023 71.023 0 0 1-69.04-83.08 60.01 60.01 0 0 1 74.429 58.2z" fill="#6c63ff"/><circle data-name="Ellipse 374" cx="70.974" cy="70.974" r="70.974" transform="translate(44.559 35.665)" fill="#c9cbff"/><path data-name="Path 5364" d="M132.78 109.067a23.25 23.25 0 0 1 32.477-4.8 23.251 23.251 0 1 0-32.477 4.8z" fill="#fff"/><path data-name="Path 5365" d="M78.53 113.553a23.25 23.25 0 0 1 32.477-4.8 23.251 23.251 0 1 0-32.477 4.8z" fill="#fff"/><circle data-name="Ellipse 375" cx="8.566" cy="8.566" r="8.566" transform="translate(85.348 81.757)" fill="#111111"/><circle data-name="Ellipse 376" cx="8.566" cy="8.566" r="8.566" transform="translate(140.822 75.231)" fill="#111111"/><circle data-name="Ellipse 377" cx="4.487" cy="4.487" r="4.487" transform="translate(116.348 104.599)" fill="#ff6584"/><path data-name="Path 5366" d="M53.533 236.093v-19.73h-6.526v19.73a9.792 9.792 0 0 0-6.526 9.23H60.06a9.792 9.792 0 0 0-6.525-9.23z" fill="#c9cbff"/><path data-name="Path 5367" d="M77.599 236.093v-19.73h-6.526v19.73a9.792 9.792 0 0 0-6.526 9.23h19.579a9.792 9.792 0 0 0-6.525-9.23z" fill="#c9cbff"/><path data-name="Path 5368" d="M86.516 42.471c-2.957-4.761-4.943-10.354-4.328-15.924s4.265-11.007 9.637-12.6 12.028 1.711 13.04 7.223a45.329 45.329 0 0 1 24.016-20c4.7-1.655 10.935-2.03 13.651 2.143 1.344 2.065 1.487 4.873 3.287 6.556 2.822 2.638 7.347.78 11.2 1.005 5.423.317 9.788 5.378 10.471 10.767s-1.7 10.8-5.227 14.939-8.106 7.2-12.626 10.214" fill="#c9cbff"/><path data-name="Path 5369" d="M128.637 125.515c.292-.309.594-.608.909-.893q.209-.189.425-.371.135-.113.272-.224c.158-.127.208-.158.016-.016a17.79 17.79 0 0 1 2.186-1.4q.526-.282 1.07-.529l.257-.114c-.385.171-.083.035.016 0q.327-.131.658-.25a18.911 18.911 0 0 1 2.511-.705 25.05 25.05 0 0 1 1.184-.208c.267-.043-.336.037-.067.009.117-.012.234-.028.352-.04q.352-.037.706-.061a19.728 19.728 0 0 1 2.548-.009c.424.026.846.069 1.268.119-.425-.05.062.012.211.036q.348.057.695.127a18.563 18.563 0 0 1 2.444.669q.3.1.593.219l.326.131c-.055-.022-.358-.159-.051-.02.384.174.764.354 1.136.552a17.958 17.958 0 0 1 2.19 1.4c.212.155-.238-.2-.038-.027.09.076.183.148.273.223q.217.182.428.371c.359.323.7.663 1.034 1.015q.454.482.873.994s.315.39.145.177c-.142-.179.059.078.091.121q.253.339.492.689a21.357 21.357 0 0 1 1.4 2.38q.3.584.559 1.184c.039.088.172.412.027.059l.117.287q.144.36.278.725a34.129 34.129 0 0 1 1.473 5.484q.133.711.244 1.426l.1.638c0-.005.07.519.033.236-.033-.252.024.19.029.238.124.993.222 1.99.3 2.988.155 1.957.238 3.92.3 5.882.151 4.978.28 9.958.42 14.937l.855 30.5.855 30.5.106 3.786a1.836 1.836 0 1 0 3.671 0l-.879-31.337-.873-31.127-.439-15.669a99.614 99.614 0 0 0-.932-12.54c-1.189-7.649-4.644-15.6-12.03-19.075a20.914 20.914 0 0 0-21.479 2.226 16.88 16.88 0 0 0-1.881 1.706 1.838 1.838 0 0 0 2.6 2.6z" fill="#111111"/><path data-name="Path 5370" d="M142.454 183.323a2.042 2.042 0 0 0-2.04 2.04l4.078 61.973a2.049 2.049 0 0 0 2.04 2.066h33.447a2.042 2.042 0 0 0 2.04-2.039l4.08-62.027a2.038 2.038 0 0 0-2.04-2.013z" fill="#e6e6e6"/><path data-name="Path 5371" d="M145.683 186.382a2.04 2.04 0 0 0-2.035 2.176l3.75 55.882a2.045 2.045 0 0 0 2.035 1.9h27.647a2.045 2.045 0 0 0 2.035-1.9l3.75-55.882a2.04 2.04 0 0 0-2.035-2.176z" fill="#e87187"/><path data-name="Path 5372" d="M157.954 195.968a.817.817 0 0 0-.816.816v4.487a.817.817 0 0 0 .816.816h6.934a.817.817 0 0 0 .816-.816v-4.487a.817.817 0 0 0-.816-.816z" fill="#e6e6e6"/><path data-name="Path 5373" d="M165.704 207.797a.817.817 0 0 0-.816.816v4.487a.817.817 0 0 0 .816.816h6.934a.817.817 0 0 0 .816-.816v-4.487a.817.817 0 0 0-.816-.816z" fill="#e6e6e6"/><path data-name="Path 5374" d="M158.362 217.586a.817.817 0 0 0-.816.816v4.487a.817.817 0 0 0 .816.816h6.934a.817.817 0 0 0 .816-.816v-4.487a.817.817 0 0 0-.816-.816z" fill="#e6e6e6"/><path data-name="Path 5375" d="M26.623 193.994c2.123.7 3.617 2.51 4.861 4.28a24.487 24.487 0 0 0 4.209 5.231 6.879 6.879 0 0 0 5.416 1.628 4.389 4.389 0 0 0 3.842-3.613c.385-2.609-1.441-5.023-3.042-6.879l-.433 1.044c2.552.275 4.77 1.73 7.107 2.666 2.239.9 4.887 1.387 7.123.217a6.462 6.462 0 0 0 3.149-4.554 9.367 9.367 0 0 0-.883-5.963 24.62 24.62 0 0 0-5.037-6.3l-.6 1.023c2.815.423 5.955.817 8.4-.992a4.979 4.979 0 0 0 1.963-2.866 5.538 5.538 0 0 0-.6-3.751c-1.285-2.5-3.709-4.265-5.883-5.943a85.77 85.77 0 0 0-16.38-9.957c-.71-.33-1.332.725-.618 1.057a86.252 86.252 0 0 1 14.183 8.313 39.311 39.311 0 0 1 6.19 5.11c1.515 1.668 2.9 4.219 1.24 6.281-1.947 2.425-5.469 1.974-8.17 1.568a.617.617 0 0 0-.6 1.023c2.823 2.824 6.175 6.214 5.684 10.56a5.532 5.532 0 0 1-2.434 4.2c-1.993 1.184-4.486.575-6.493-.244-2.437-.994-4.682-2.389-7.351-2.677-.575-.062-.742.686-.433 1.044 1.295 1.5 2.848 3.453 2.733 5.557a3.248 3.248 0 0 1-3.277 2.913c-4.187.253-6.3-4.106-8.424-6.965a10.911 10.911 0 0 0-5.128-4.2c-.749-.248-1.07.933-.325 1.18z" fill="#111111"/></svg>