<svg xmlns="http://www.w3.org/2000/svg" width="667.964" height="530.692"><defs><radialGradient id="b" cx=".265" cy=".25" r=".5" gradientUnits="objectBoundingBox"><stop offset="0" stop-color="#17326a"/><stop offset="1" stop-color="#3d2652"/></radialGradient><linearGradient id="a" x1=".985" y1=".5" x2=".216" y2=".385" gradientUnits="objectBoundingBox"><stop offset="0" stop-color="#0abb92"/><stop offset="1" stop-color="#75d5fd" stop-opacity=".702"/></linearGradient></defs><g><path data-name="Path 427" d="M951.741 438.915c10.945 81.458-3.959 163.005-79.767 194.76a148.819 148.819 0 0 1-194.76-79.767c-31.754-75.809 43.168-121.168 79.767-194.76 74.319-149.448 160.769-173.2 194.76 79.767z" transform="translate(-286.976 -123.604)" fill="url(#a)"/><ellipse data-name="Ellipse 137" cx="118.776" cy="16.159" rx="118.776" ry="16.159" transform="translate(409.512 498.375)" fill="#19274b"/><path data-name="Rectangle 240" fill="#d55438" d="m450.588 473.406 28.957-8.005 4.468 16.162-28.957 8.005z"/><ellipse data-name="Ellipse 138" cx="5.24" cy="13.974" rx="5.24" ry="13.974" transform="rotate(-15.453 1940.628 -1388.385)" fill="#d55438"/><ellipse data-name="Ellipse 139" cx="27.598" cy="8.664" rx="27.598" ry="8.664" transform="rotate(-82.281 514.011 -76.832)" fill="#d55438"/><circle data-name="Ellipse 140" cx="55.196" cy="55.196" r="55.196" transform="translate(472.802 413.129)" fill="#d55438"/><path data-name="Rectangle 241" fill="#d55438" d="m450.587 463.624 28.957-8.005 4.468 16.162-28.957 8.005z"/><ellipse data-name="Ellipse 141" cx="5.24" cy="13.974" rx="5.24" ry="13.974" transform="rotate(-15.453 1904.578 -1393.272)" fill="#d55438"/><circle data-name="Ellipse 142" cx="18.864" cy="18.864" r="18.864" transform="translate(523.627 417.841)" fill="#fff"/><circle data-name="Ellipse 143" cx="6.288" cy="6.288" r="6.288" transform="translate(542.236 422.084)" fill="#3f3d56"/><path data-name="Path 428" d="M591.739 506.255c20.426-1.022 36.069-20.127 34.941-42.673s-18.6-39.993-39.027-38.971-23.631 17.056-22.5 39.6 6.16 43.067 26.586 42.044z" fill="#2D55FF"/><path data-name="Path 429" d="M505.439 444.971a12.576 12.576 0 1 1-2.029-25.07c6.923-.56 8.811 4.936 9.371 11.859s-.418 12.648-7.342 13.211z" fill="#fff"/><path data-name="Rectangle 242" fill="#2D55FF" d="M472.026 354.028h88.124v44.828h-88.124z"/><ellipse data-name="Ellipse 144" cx="27.598" cy="8.664" rx="27.598" ry="8.664" transform="rotate(-82.281 511.159 -58.418)" fill="#d55438"/><path data-name="Path 430" d="M588.911 248.914a.687.687 0 0 1-.211-.033c-184.736-58.422-347.555-50.783-451.613-34.086a900.54 900.54 0 0 0-42.2 7.8 847.3 847.3 0 0 0-10.9 2.36c-4.415.983-8.771 2-12.948 3.008q-2.706.641-5.306 1.292c-2.626.648-5.29 1.324-8.146 2.066a659.966 659.966 0 0 0-9.64 2.565l-.036.01a649.85 649.85 0 0 0-10.706 3.022 386.812 386.812 0 0 0-5.449 1.612c-.195.054-.367.106-.542.159l-.375.114c-.217.066-.431.131-.645.192h-.014l-.567.176c-.676.2-1.336.4-1.985.6-17.149 5.286-26.576 9.047-26.67 9.084a.7.7 0 0 1-.52-1.3c.094-.037 9.567-3.817 26.779-9.123.651-.2 1.313-.4 1.991-.605l.527-.164.055-.018c.213-.061.426-.126.642-.191l.375-.114c.187-.057.371-.113.56-.164a419.29 419.29 0 0 1 5.448-1.612 648.068 648.068 0 0 1 10.714-3.024l.034-.01a655.26 655.26 0 0 1 9.673-2.574c2.861-.743 5.53-1.42 8.16-2.069q2.611-.65 5.317-1.294a713.824 713.824 0 0 1 12.97-3.013c3.7-.827 7.375-1.623 10.915-2.363a903.922 903.922 0 0 1 42.268-7.81c104.208-16.711 267.26-24.364 452.252 34.143a.7.7 0 0 1-.21 1.365z" fill="#dcdcdc"/><ellipse data-name="Ellipse 146" cx="27.598" cy="8.664" rx="27.598" ry="8.664" transform="rotate(-69.08 258.418 25.856)" fill="#ffb74d"/><circle data-name="Ellipse 147" cx="9.562" cy="9.562" r="9.562" transform="translate(162.966 200.06)" fill="#2D55FF"/><path data-name="Path 431" d="M305.112 158.738a11.008 11.008 0 1 1 11.008-11.008 11.008 11.008 0 0 1-11.008 11.008zm0-20.619a9.611 9.611 0 1 0 9.611 9.611 9.611 9.611 0 0 0-9.611-9.612z" fill="#dcdcdc"/><path data-name="Path 432" d="M381.967 284.5a11.008 11.008 0 1 1 11.008-11.008 11.008 11.008 0 0 1-11.008 11.008zm0-20.619a9.611 9.611 0 1 0 9.611 9.611 9.611 9.611 0 0 0-9.611-9.612z" fill="#dcdcdc"/><path data-name="Path 433" d="M217.777 345.984a11.008 11.008 0 1 1 11.008-11.008 11.008 11.008 0 0 1-11.008 11.008zm0-20.619a9.611 9.611 0 1 0 9.611 9.61 9.61 9.61 0 0 0-9.611-9.61z" fill="#dcdcdc"/><ellipse data-name="Ellipse 148" cx="118.776" cy="16.159" rx="118.776" ry="16.159" transform="translate(15.457 498.375)" fill="#19274b"/><circle data-name="Ellipse 149" cx="55.196" cy="55.196" r="55.196" transform="translate(72.612 380.387)" fill="#0abb92"/><path data-name="Rectangle 243" fill="#0abb92" d="M102.655 478.901h16.768v30.043h-16.768z"/><path data-name="Rectangle 244" fill="#0abb92" d="M136.192 478.901h16.768v30.043h-16.768z"/><ellipse data-name="Ellipse 150" cx="13.974" cy="5.24" rx="13.974" ry="5.24" transform="translate(102.655 504.054)" fill="#0abb92"/><ellipse data-name="Ellipse 151" cx="13.974" cy="5.24" rx="13.974" ry="5.24" transform="translate(136.192 503.355)" fill="#0abb92"/><circle data-name="Ellipse 152" cx="18.864" cy="18.864" r="18.864" transform="translate(110.34 402.745)" fill="#fff"/><circle data-name="Ellipse 153" cx="6.288" cy="6.288" r="6.288" transform="translate(122.917 415.321)" fill="#3f3d56"/><path data-name="Path 434" d="M74.266 384.252c-4.457-19.96 9.79-40.128 31.821-45.047s43.5 7.273 47.96 27.233-10.144 27.321-32.175 32.24-43.149 5.534-47.606-14.426z" fill="#2D55FF"/><circle data-name="Ellipse 154" cx="55.196" cy="55.196" r="55.196" transform="translate(53.747 221.787)" fill="#ffb74d"/><path data-name="Rectangle 245" fill="#ffb74d" d="M83.791 320.301h16.768v30.043H83.791z"/><path data-name="Rectangle 246" fill="#ffb74d" d="M117.327 320.301h16.768v30.043h-16.768z"/><ellipse data-name="Ellipse 155" cx="13.974" cy="5.24" rx="13.974" ry="5.24" transform="translate(83.791 345.453)" fill="#ffb74d"/><ellipse data-name="Ellipse 156" cx="13.974" cy="5.24" rx="13.974" ry="5.24" transform="translate(117.327 344.754)" fill="#ffb74d"/><circle data-name="Ellipse 157" cx="18.864" cy="18.864" r="18.864" transform="translate(91.476 244.144)" fill="#fff"/><circle data-name="Ellipse 158" cx="6.288" cy="6.288" r="6.288" transform="translate(104.052 256.721)" fill="#3f3d56"/><path data-name="Path 435" d="M55.401 225.652c-4.457-19.96 9.79-40.128 31.821-45.047s43.5 7.273 47.96 27.233-10.144 27.321-32.175 32.24-43.149 5.534-47.606-14.426z" fill="#2D55FF"/><ellipse data-name="Ellipse 159" cx="8.664" cy="27.598" rx="8.664" ry="27.598" transform="rotate(-64.626 204.618 109.357)" fill="#ffb74d"/><path data-name="Path 436" d="M81.827 296.895c0 5.4 13.91 16.07 29.345 16.07s29.907-15.209 29.907-20.611-14.472 1.048-29.907 1.048-29.345-1.909-29.345 3.493z" fill="#fff"/><circle data-name="Ellipse 160" cx="55.196" cy="55.196" r="55.196" transform="translate(487.102 77.183)" fill="#dcdcdc"/><path data-name="Rectangle 247" fill="#dcdcdc" d="m558.265 173.508 16.5-2.987 5.351 29.563-16.5 2.987z"/><path data-name="Rectangle 248" fill="#dcdcdc" d="m525.266 179.488 16.5-2.987 5.351 29.563-16.5 2.987z"/><ellipse data-name="Ellipse 161" cx="13.974" cy="5.24" rx="13.974" ry="5.24" transform="rotate(-40.25 556.228 -604.113)" fill="#dcdcdc"/><ellipse data-name="Ellipse 162" cx="13.974" cy="5.24" rx="13.974" ry="5.24" transform="rotate(-40.25 564.405 -651.137)" fill="#dcdcdc"/><circle data-name="Ellipse 163" cx="18.864" cy="18.864" r="18.864" transform="translate(519.569 100.013)" fill="#fff"/><circle data-name="Ellipse 164" cx="6.288" cy="6.288" r="6.288" transform="translate(524.392 105.828)" fill="#3f3d56"/><path data-name="Path 437" d="M585.839 72.332c.83-20.434-16.781-37.742-39.336-38.658s-41.512 14.906-42.342 35.341 14.848 25.077 37.4 25.993 43.448-2.242 44.278-22.676z" fill="#2D55FF"/><ellipse data-name="Ellipse 165" cx="8.664" cy="27.598" rx="8.664" ry="27.598" transform="rotate(-77.11 309.355 -227.822)" fill="#dcdcdc"/><ellipse data-name="Ellipse 166" cx="8.664" cy="27.598" rx="8.664" ry="27.598" transform="rotate(-77.11 374.818 -286.778)" fill="#dcdcdc"/><path data-name="Path 438" d="M557.456 154.131a12.576 12.576 0 1 1-24.75 4.48c-1.237-6.835 4.047-9.253 10.882-10.49s12.633-.824 13.868 6.01z" fill="#fff"/><path data-name="Rectangle 249" fill="#3f3d56" d="m406.712 69.725.852-1.107 63.579 48.908-.852 1.107z"/><circle data-name="Ellipse 167" cx="47.51" cy="47.51" r="47.51" transform="translate(329.586)" fill="url(#b)"/><circle data-name="Ellipse 168" cx="9.562" cy="9.562" r="9.562" transform="translate(53.972 488.615)" fill="#2D55FF"/><path data-name="Rectangle 250" fill="#ff6584" d="M194.74 486.98h25.152v25.152H194.74z"/><circle data-name="Ellipse 169" cx="9.562" cy="9.562" r="9.562" transform="translate(185.324 494.205)" fill="#2D55FF"/></g></svg>