<svg id="document_icon" xmlns="http://www.w3.org/2000/svg" width="18.24" height="24" viewBox="0 0 18.24 24">
  <path id="Path_5794" data-name="Path 5794" d="M21.784,10.1h5.662a.308.308,0,0,0,.311-.311h0a1.842,1.842,0,0,0-.666-1.425L22.344,4.4a2,2,0,0,0-1.282-.46h0a.459.459,0,0,0-.46.46V8.916A1.182,1.182,0,0,0,21.784,10.1Z" transform="translate(-9.517 -3.945)" fill="#707070"/>
  <path id="Path_5795" data-name="Path 5795" d="M17.093,8.738v-4.8H9.233a1.926,1.926,0,0,0-1.92,1.92v20.16a1.926,1.926,0,0,0,1.92,1.92h14.4a1.926,1.926,0,0,0,1.92-1.92V11.438h-5.76A2.7,2.7,0,0,1,17.093,8.738Z" transform="translate(-7.313 -3.937)" fill="#707070"/>
</svg>
