<svg id="Lens_icon" xmlns="http://www.w3.org/2000/svg" width="37.895" height="24" viewBox="0 0 37.895 24">
  <path id="Path_5823" data-name="Path 5823" d="M61.087,60.319a6.822,6.822,0,0,1,4.948-1.664,7.483,7.483,0,0,1,4.639,2.171,7.275,7.275,0,0,1,2.2,4.564,6.681,6.681,0,0,1-2.005,5.216q-.213.223-.435.441A25.634,25.634,0,0,1,53.947,78h0a25.632,25.632,0,0,1-16.488-6.954l0,0q-.219-.217-.431-.436h0a6.676,6.676,0,0,1-2.007-5.214,7.274,7.274,0,0,1,2.2-4.564,7.482,7.482,0,0,1,4.638-2.173,6.824,6.824,0,0,1,4.949,1.663,6.613,6.613,0,0,1,2.3-4.622,7.75,7.75,0,0,1,9.678,0A6.614,6.614,0,0,1,61.087,60.319ZM54.269,77.3v-.009h0Zm-.645,0v-.009h0Zm5.612-9.63c-.193,0-.259.274-.137.419a1.464,1.464,0,0,1,.348.949,1.505,1.505,0,0,1-3.01,0,.048.048,0,0,0-.084-.03,2.512,2.512,0,0,0-.464,1.06.456.456,0,0,1-.434.39h-.122a.462.462,0,0,1-.484-.51,4.564,4.564,0,0,1,8.772,0,.462.462,0,0,1-.484.51.622.622,0,0,1-.58-.507A3.266,3.266,0,0,0,59.236,67.667ZM45.871,69.035a.064.064,0,0,0-.112-.043,2.534,2.534,0,0,0-.5,1.085.5.5,0,0,1-.472.421H44.7a.462.462,0,0,1-.484-.51,4.564,4.564,0,0,1,8.772,0,.462.462,0,0,1-.484.51.622.622,0,0,1-.58-.507A3.265,3.265,0,0,0,48.6,67.71c-.156,0-.213.216-.109.329a1.465,1.465,0,0,1,.39,1,1.505,1.505,0,0,1-3.01,0Zm9.751,3.576a.677.677,0,0,1,.772-.162.44.44,0,0,1,.167.668,3.528,3.528,0,0,1-5.237,0,.44.44,0,0,1,.169-.668.678.678,0,0,1,.772.164,2.5,2.5,0,0,0,3.357,0Z" transform="translate(-35 -54)" fill="#707070" fill-rule="evenodd"/>
</svg>
