<svg id="money_icon" xmlns="http://www.w3.org/2000/svg" width="13.573" height="24" viewBox="0 0 13.573 24">
  <path id="Icon_material-attach-money" data-name="Icon material-attach-money" d="M16.787,15.033c-3.027-.787-4-1.6-4-2.867,0-1.453,1.347-2.467,3.6-2.467,2.373,0,3.253,1.133,3.333,2.8h2.947a5.315,5.315,0,0,0-4.28-5.08V4.5h-4V7.38C11.8,7.94,9.72,9.62,9.72,12.193c0,3.08,2.547,4.613,6.267,5.507,3.333.8,4,1.973,4,3.213,0,.92-.653,2.387-3.6,2.387-2.747,0-3.827-1.227-3.973-2.8H9.48c.16,2.92,2.347,4.56,4.907,5.107V28.5h4V25.633c2.6-.493,4.667-2,4.667-4.733C23.053,17.113,19.813,15.82,16.787,15.033Z" transform="translate(-9.48 -4.5)" fill="#707070"/>
</svg>
