<svg id="piggy_icon" xmlns="http://www.w3.org/2000/svg" width="26.999" height="24" viewBox="0 0 26.999 24">
  <path id="Icon_awesome-piggy-bank" data-name="Icon awesome-piggy-bank" d="M26.251,10.5H24.868a7.523,7.523,0,0,0-1.753-2.461L24,4.5H22.5a4.472,4.472,0,0,0-3.422,1.608A7.434,7.434,0,0,0,18,6H12a7.507,7.507,0,0,0-7.35,6H2.626a1.126,1.126,0,0,1-1.1-1.35,1.155,1.155,0,0,1,1.148-.9h.047A.282.282,0,0,0,3,9.469V8.531a.282.282,0,0,0-.281-.281,2.685,2.685,0,0,0-2.7,2.278,2.627,2.627,0,0,0,2.6,2.972H4.5a7.47,7.47,0,0,0,3,5.967V23.25a.752.752,0,0,0,.75.75h3a.752.752,0,0,0,.75-.75V21h6v2.25a.752.752,0,0,0,.75.75h3a.752.752,0,0,0,.75-.75V19.467A7.5,7.5,0,0,0,23.968,18h2.283a.752.752,0,0,0,.75-.75v-6A.752.752,0,0,0,26.251,10.5Zm-6,3a.75.75,0,1,1,.75-.75A.752.752,0,0,1,20.251,13.5ZM12,4.5h6c.253,0,.5.019.745.038,0-.014,0-.023,0-.038a4.5,4.5,0,1,0-9,0c0,.1.023.192.028.291A8.911,8.911,0,0,1,12,4.5Z" transform="translate(-0.002)" fill="#707070"/>
</svg>
