<svg id="settings_icon" xmlns="http://www.w3.org/2000/svg" width="23.345" height="24" viewBox="0 0 23.345 24">
  <path id="Icon_material-settings" data-name="Icon material-settings" d="M24,16.176A9.352,9.352,0,0,0,24.081,15,9.352,9.352,0,0,0,24,13.824l2.532-1.98a.605.605,0,0,0,.144-.768l-2.4-4.152a.6.6,0,0,0-.732-.264l-2.988,1.2a8.767,8.767,0,0,0-2.028-1.176L18.069,3.5a.585.585,0,0,0-.588-.5h-4.8a.585.585,0,0,0-.588.5l-.456,3.18A9.219,9.219,0,0,0,9.609,7.86L6.621,6.66a.585.585,0,0,0-.732.264l-2.4,4.152a.592.592,0,0,0,.144.768l2.532,1.98A9.517,9.517,0,0,0,6.081,15a9.517,9.517,0,0,0,.084,1.176l-2.532,1.98a.605.605,0,0,0-.144.768l2.4,4.152a.6.6,0,0,0,.732.264l2.988-1.2a8.767,8.767,0,0,0,2.028,1.176l.456,3.18a.585.585,0,0,0,.588.5h4.8a.585.585,0,0,0,.588-.5l.456-3.18a9.219,9.219,0,0,0,2.028-1.176l2.988,1.2a.585.585,0,0,0,.732-.264l2.4-4.152a.605.605,0,0,0-.144-.768L24,16.176ZM15.081,19.2a4.2,4.2,0,1,1,4.2-4.2A4.2,4.2,0,0,1,15.081,19.2Z" transform="translate(-3.406 -3)" fill="#FFF"/>
</svg>
