<svg id="stats_icon" xmlns="http://www.w3.org/2000/svg" width="33" height="36" viewBox="0 0 33 36">
  <path id="Path_5805" data-name="Path 5805" d="M12.938,40.5h3.375c.309,0,.563-.337.563-.75V5.25c0-.412-.253-.75-.562-.75H12.938c-.309,0-.562.338-.562.75v34.5C12.375,40.163,12.628,40.5,12.938,40.5Z" transform="translate(-2.875 -4.5)" fill="#707070"/>
  <path id="Path_5806" data-name="Path 5806" d="M6.188,31.5H9.563a.564.564,0,0,0,.563-.562V20.813a.564.564,0,0,0-.562-.562H6.188a.564.564,0,0,0-.562.563V30.938A.564.564,0,0,0,6.188,31.5Z" transform="translate(-5.625 4.5)" fill="#707070"/>
  <path id="Path_5807" data-name="Path 5807" d="M19.695,31.5h3.361a.567.567,0,0,0,.57-.57V16.32a.567.567,0,0,0-.57-.57H19.695a.567.567,0,0,0-.57.57V30.93A.567.567,0,0,0,19.695,31.5Z" transform="translate(-0.125 4.5)" fill="#707070"/>
  <path id="Path_5808" data-name="Path 5808" d="M25.875,9.873V42.627c0,.485.253.873.57.873h3.361c.316,0,.57-.388.57-.873V9.873c0-.485-.253-.873-.57-.873H26.445C26.128,9,25.875,9.388,25.875,9.873Z" transform="translate(2.625 -7.5)" fill="#707070"/>
</svg>
