<svg id="workflows_icon" xmlns="http://www.w3.org/2000/svg" width="24.005" height="24" viewBox="0 0 24.005 24">
  <path id="Path_5809" data-name="Path 5809" d="M27.673,9.1,18.337,4.843a5.057,5.057,0,0,0-3.681,0L5.325,9.1c-1.1.5-1.1,1.319,0,1.819l9.249,4.218a5.313,5.313,0,0,0,3.85,0l9.249-4.218C28.773,10.418,28.773,9.6,27.673,9.1Z" transform="translate(-4.494 -4.496)" fill="#fff"/>
  <g id="Group_18205" data-name="Group 18205" transform="translate(0 10.113)">
    <path id="Path_5810" data-name="Path 5810" d="M14.574,26.014,8.337,23.171a1.014,1.014,0,0,0-.831,0l-2.181.994c-1.1.5-1.1,1.319,0,1.819L14.574,30.2a5.313,5.313,0,0,0,3.85,0l9.249-4.218c1.1-.5,1.1-1.319,0-1.819l-2.181-.994a1.014,1.014,0,0,0-.831,0l-6.237,2.844A5.313,5.313,0,0,1,14.574,26.014Z" transform="translate(-4.494 -16.676)" fill="#fff"/>
    <path id="Path_5811" data-name="Path 5811" d="M27.673,16.864l-1.981-.9a1,1,0,0,0-.825,0l-6.75,3.056a5.517,5.517,0,0,1-3.244,0l-6.75-3.056a1,1,0,0,0-.825,0l-1.981.9c-1.1.5-1.1,1.319,0,1.819L14.567,22.9a5.313,5.313,0,0,0,3.85,0l9.249-4.218C28.773,18.182,28.773,17.364,27.673,16.864Z" transform="translate(-4.493 -15.875)" fill="#fff"/>
  </g>
</svg>
