<svg width="20" height="16" viewBox="0 0 20 16" fill="none" xmlns="http://www.w3.org/2000/svg">
<path d="M17.1229 6.36557C17.1081 6.28353 17.0896 6.20507 17.06 6.13017C17.0711 6.11234 19.5286 2.81314 17.2525 0.773005C14.9799 -1.26714 12.326 1.39361 12.3112 1.40788C11.8893 1.27947 11.4636 1.20101 11.0417 1.16534C11.0417 1.16534 11.0417 1.16534 11.038 1.16534C10.1719 1.02624 8.95784 1.16534 8.95784 1.16534C8.53961 1.20101 8.11767 1.27947 7.69941 1.4043C7.68461 1.39004 5.03079 -1.27071 2.75822 0.769437C0.485631 2.80958 2.93957 6.11234 2.95068 6.12661C2.92478 6.20507 2.90256 6.28353 2.88776 6.36201C2.64348 7.77441 0.966797 8.20955 0.966797 10.6706C0.966797 13.1779 2.7175 15.1538 6.29294 15.1538H7.75863C7.76604 15.161 8.33234 15.9386 9.50194 15.9849C9.50194 15.9849 9.77213 16.0134 10.3939 15.992C11.6339 15.992 12.2372 15.1681 12.2409 15.1574H13.7066C17.282 15.1574 19.0327 13.1815 19.0327 10.6741C19.0438 8.21668 17.3671 7.77798 17.1229 6.36557Z" fill="#ffffff"/>
</svg>
