<svg xmlns="http://www.w3.org/2000/svg" width="76.06" height="76.06" viewBox="0 0 76.06 76.06">
  <g id="Icon_ionic-ios-image" data-name="Icon ionic-ios-image" transform="translate(-3.375 -3.375)">
    <path id="Path_5319" data-name="Path 5319" d="M8.549,40.48H43.416a1.018,1.018,0,0,0,.823-1.609L26.8,10.824a1.008,1.008,0,0,0-1.664,0L7.708,38.871A1.025,1.025,0,0,0,8.549,40.48Z" transform="translate(6.637 11.219)" fill="#6475a3"/>
    <path id="Path_5320" data-name="Path 5320" d="M21.676,22.471l6.4,10.184a.991.991,0,0,0,.823.439h9.727a1.018,1.018,0,0,0,.823-1.609L28.185,15.451a1.008,1.008,0,0,0-1.664,0L21.658,21.32A1.054,1.054,0,0,0,21.676,22.471Z" transform="translate(28.999 18.623)" fill="#6475a3"/>
    <path id="Path_5321" data-name="Path 5321" d="M28.156,18.09a5.119,5.119,0,1,0-5.613-5.613A5.137,5.137,0,0,0,28.156,18.09Z" transform="translate(30.636 7.207)" fill="#6475a3"/>
    <path id="Path_5322" data-name="Path 5322" d="M73.584,3.375H9.226A5.844,5.844,0,0,0,3.375,9.226V73.584a5.844,5.844,0,0,0,5.851,5.851H73.584a5.844,5.844,0,0,0,5.851-5.851V9.226A5.844,5.844,0,0,0,73.584,3.375ZM73.09,54.569a1.467,1.467,0,0,1-1.463,1.463H11.182a1.467,1.467,0,0,1-1.463-1.463V11.182a1.467,1.467,0,0,1,1.463-1.463H71.646a1.467,1.467,0,0,1,1.463,1.463V54.569Z" transform="translate(0 0)" fill="#6475a3"/>
  </g>
</svg>
