<svg id="member_icon" xmlns="http://www.w3.org/2000/svg" width="30" height="24" viewBox="0 0 30 24">
  <path id="Icon_awesome-user-check" data-name="Icon awesome-user-check" d="M10.5,12a6,6,0,1,0-6-6A6,6,0,0,0,10.5,12Zm4.2,1.5h-.783a8.16,8.16,0,0,1-6.834,0H6.3A6.3,6.3,0,0,0,0,19.8v1.95A2.251,2.251,0,0,0,2.25,24h16.5A2.251,2.251,0,0,0,21,21.75V19.8A6.3,6.3,0,0,0,14.7,13.5ZM29.841,7.481l-1.3-1.317a.556.556,0,0,0-.788,0l-4.913,4.875L20.7,8.888a.556.556,0,0,0-.788,0L18.6,10.191a.556.556,0,0,0,0,.787l3.83,3.858a.556.556,0,0,0,.788,0l6.623-6.572a.56.56,0,0,0,0-.787Z" fill="#707070"/>
</svg>
