<svg id="Notification_icon" xmlns="http://www.w3.org/2000/svg" width="19.189" height="24" viewBox="0 0 19.189 24">
  <g id="Icon_ionic-ios-notifications" data-name="Icon ionic-ios-notifications" transform="translate(-6.761 -3.93)">
    <path id="Path_5792" data-name="Path 5792" d="M17.5,31.515c1.866,0,2.885-1.32,2.885-3.179H14.6C14.6,30.2,15.624,31.515,17.5,31.515Z" transform="translate(-1.152 -3.585)" fill="#707070"/>
    <path id="Path_5793" data-name="Path 5793" d="M25.707,21.7c-.924-1.218-2.741-1.932-2.741-7.384,0-5.6-2.471-7.846-4.775-8.386-.216-.054-.372-.126-.372-.354V5.406a1.464,1.464,0,1,0-2.927,0V5.58c0,.222-.156.3-.372.354C12.21,6.48,9.745,8.723,9.745,14.32c0,5.453-1.818,6.16-2.741,7.384a1.191,1.191,0,0,0,.954,1.908h16.8A1.191,1.191,0,0,0,25.707,21.7Z" fill="#707070"/>
  </g>
</svg>
