<svg id="reward_icon" xmlns="http://www.w3.org/2000/svg" width="22.286" height="24" viewBox="0 0 22.286 24">
  <path id="Path_5817" data-name="Path 5817" d="M23.946,7.821H19.43a3.148,3.148,0,0,0,1.087-2.357,3.3,3.3,0,0,0-3.38-3.214,2.989,2.989,0,0,0-2.62,1.468A2.989,2.989,0,0,0,11.9,2.25a3.3,3.3,0,0,0-3.38,3.214A3.129,3.129,0,0,0,9.605,7.821H5.089A1.712,1.712,0,0,0,3.375,9.536v1.071a.215.215,0,0,0,.214.214H25.446a.215.215,0,0,0,.214-.214V9.536A1.712,1.712,0,0,0,23.946,7.821ZM17.138,3.75a1.761,1.761,0,0,1,1.805,1.714,1.761,1.761,0,0,1-1.805,1.714H15.332C15.332,4.607,16.141,3.75,17.138,3.75Zm-5.239,0c1,0,1.805.857,1.805,3.429H11.9a1.761,1.761,0,0,1-1.805-1.714A1.761,1.761,0,0,1,11.9,3.75Z" transform="translate(-3.375 -2.25)" fill="#707070"/>
  <path id="Path_5818" data-name="Path 5818" d="M4.5,15.757V27.65a1.719,1.719,0,0,0,1.714,1.714h7.821V15.328H4.929A.43.43,0,0,0,4.5,15.757Z" transform="translate(-3.643 -5.364)" fill="#707070"/>
  <path id="Path_5819" data-name="Path 5819" d="M28.092,15.328H18.984V29.364h7.821A1.719,1.719,0,0,0,28.52,27.65V15.757A.43.43,0,0,0,28.092,15.328Z" transform="translate(-7.092 -5.364)" fill="#707070"/>
</svg>
