<svg xmlns="http://www.w3.org/2000/svg" width="18.674" height="14.939" viewBox="0 0 18.674 14.939">
  <path id="survey_icon" d="M6.536,7.47A3.735,3.735,0,1,0,2.8,3.735,3.734,3.734,0,0,0,6.536,7.47ZM9.15,8.4H8.663a5.079,5.079,0,0,1-4.254,0H3.921A3.923,3.923,0,0,0,0,12.325v1.214a1.4,1.4,0,0,0,1.4,1.4H11.671a1.4,1.4,0,0,0,1.4-1.4V12.325A3.923,3.923,0,0,0,9.15,8.4Zm9.424-3.746-.811-.82a.346.346,0,0,0-.49,0L14.215,6.868,12.888,5.532a.346.346,0,0,0-.49,0l-.82.814a.346.346,0,0,0,0,.49l2.384,2.4a.346.346,0,0,0,.49,0l4.123-4.091a.349.349,0,0,0,0-.49Z" fill="#6c63ff"/>
</svg>
