<svg width="44" height="42" viewBox="0 0 44 42" fill="none" xmlns="http://www.w3.org/2000/svg">
<path d="M15.2 42L11.4 35.6L4.2 34L4.9 26.6L0 21L4.9 15.4L4.2 8L11.4 6.4L15.2 0L22 2.9L28.8 0L32.6 6.4L39.8 8L39.1 15.4L44 21L39.1 26.6L39.8 34L32.6 35.6L28.8 42L22 39.1L15.2 42ZM16.9 36.9L22 34.7L27.2 36.9L30 32.1L35.5 30.8L35 25.2L38.7 21L35 16.7L35.5 11.1L30 9.9L27.1 5.1L22 7.3L16.8 5.1L14 9.9L8.5 11.1L9 16.7L5.3 21L9 25.2L8.5 30.9L14 32.1L16.9 36.9ZM19.9 28.1L31.2 16.8L28.4 13.9L19.9 22.4L15.6 18.2L12.8 21L19.9 28.1Z" fill="#707070"/>
</svg>
