<svg id="Wallet_icon" xmlns="http://www.w3.org/2000/svg" width="25.333" height="24" viewBox="0 0 25.333 24">
  <path id="Icon_material-account-balance-wallet" data-name="Icon material-account-balance-wallet" d="M28.5,24.5v1.333A2.675,2.675,0,0,1,25.833,28.5H7.167A2.666,2.666,0,0,1,4.5,25.833V7.167A2.666,2.666,0,0,1,7.167,4.5H25.833A2.675,2.675,0,0,1,28.5,7.167V8.5h-12a2.666,2.666,0,0,0-2.667,2.667V21.833A2.666,2.666,0,0,0,16.5,24.5Zm-12-2.667H29.833V11.167H16.5ZM21.833,18.5a2,2,0,1,1,2-2A2,2,0,0,1,21.833,18.5Z" transform="translate(-4.5 -4.5)" fill="#FFF"/>
</svg>
