<svg width="18" height="18" viewBox="0 0 18 18" fill="none" xmlns="http://www.w3.org/2000/svg">
<g clip-path="url(#clip0_1052_601)">
<path d="M15.2378 3.1168C14.0905 2.59039 12.8602 2.20255 11.5739 1.98042C11.5505 1.97614 11.5271 1.98685 11.515 2.00828C11.3568 2.28969 11.1815 2.65681 11.0588 2.94537C9.6753 2.73824 8.29889 2.73824 6.94374 2.94537C6.82099 2.6504 6.63936 2.28969 6.48043 2.00828C6.46836 1.98757 6.44496 1.97685 6.42154 1.98042C5.13593 2.20184 3.90567 2.58968 2.7577 3.1168C2.74776 3.12109 2.73925 3.12824 2.73359 3.13751C0.400044 6.62379 -0.239213 10.0244 0.0743851 13.3828C0.075804 13.3992 0.0850274 13.4149 0.0977985 13.4249C1.63741 14.5556 3.12878 15.242 4.59246 15.697C4.61588 15.7041 4.6407 15.6955 4.65561 15.6762C5.00184 15.2034 5.31048 14.7049 5.57511 14.1806C5.59072 14.1499 5.57582 14.1135 5.5439 14.1013C5.05435 13.9156 4.5882 13.6892 4.1398 13.4321C4.10433 13.4114 4.10149 13.3606 4.13412 13.3363C4.22848 13.2656 4.32287 13.1921 4.41297 13.1178C4.42927 13.1042 4.45198 13.1014 4.47115 13.1099C7.41696 14.4549 10.6062 14.4549 13.5172 13.1099C13.5364 13.1006 13.5591 13.1035 13.5761 13.1171C13.6662 13.1914 13.7606 13.2656 13.8557 13.3363C13.8883 13.3606 13.8862 13.4114 13.8507 13.4321C13.4023 13.6942 12.9361 13.9156 12.4459 14.1006C12.414 14.1128 12.3998 14.1499 12.4154 14.1806C12.6857 14.7041 12.9943 15.2027 13.3342 15.6755C13.3484 15.6955 13.3739 15.7041 13.3973 15.697C14.8681 15.242 16.3595 14.5556 17.8991 13.4249C17.9126 13.4149 17.9211 13.3999 17.9225 13.3835C18.2978 9.50079 17.2939 6.1281 15.2612 3.13822C15.2562 3.12824 15.2477 3.12109 15.2378 3.1168ZM6.01502 11.3379C5.12812 11.3379 4.39735 10.5236 4.39735 9.52366C4.39735 8.5237 5.11395 7.70946 6.01502 7.70946C6.92315 7.70946 7.64686 8.53085 7.63266 9.52366C7.63266 10.5236 6.91606 11.3379 6.01502 11.3379ZM11.9961 11.3379C11.1092 11.3379 10.3784 10.5236 10.3784 9.52366C10.3784 8.5237 11.095 7.70946 11.9961 7.70946C12.9042 7.70946 13.6279 8.53085 13.6137 9.52366C13.6137 10.5236 12.9042 11.3379 11.9961 11.3379Z" fill="#fff"/>
</g>
<defs>
<clipPath id="clip0_1052_601">
<rect width="18" height="18" fill="white"/>
</clipPath>
</defs>
</svg>
